<svg width="718" height="638" viewBox="0 0 718 638" fill="none" xmlns="http://www.w3.org/2000/svg">
<g filter="url(#filter0_d_1732_441)">
<path fill-rule="evenodd" clip-rule="evenodd" d="M563.998 295.352C563.998 408.766 472.218 500.705 359 500.705C245.782 500.705 154.002 408.766 154.002 295.352C154.002 181.939 245.782 90 359 90C472.218 90 563.998 181.939 563.998 295.352ZM272.348 261.154C272.361 261.131 272.382 261.115 272.392 261.089C273.678 258.09 275.116 255.128 276.742 252.224C293.888 221.612 325.872 204.588 358.637 205.085C362.721 205.173 366.578 205.506 370.228 206C373.186 206.422 376.136 206.988 379.071 207.708C378.954 207.642 378.844 207.566 378.733 207.491C388.732 209.629 396.89 212.673 403.534 214.459C403.534 214.459 410.808 216.834 415.895 216.597C427.189 215.495 433.129 212.329 435.508 211.241C436.265 211.276 436.12 211.568 436.117 211.799C434.015 216.121 432.133 222.391 432.014 227.016C430.295 250.534 460.638 273.243 444.247 327.101C442.355 332.118 440.055 337.067 437.346 341.904C435.195 345.74 432.483 349.21 429.914 352.664C416.092 371.241 396.19 384.853 374.671 389.164C353.782 393.453 331.319 390.561 311.256 379.313C269.289 355.782 252.921 304.242 272.382 261.182C272.455 261.25 272.446 261.198 272.392 261.089C272.382 261.112 272.374 261.138 272.358 261.162L272.348 261.154Z" fill="#FCD702"/>
</g>
<path d="M293.175 261.821L306.802 251.801L359.498 245.863L363.951 249.574L372.116 258.481L366.178 409.147L340.943 406.921L293.175 261.821Z" fill="white"/>
<mask id="mask0_1732_441" style="mask-type:alpha" maskUnits="userSpaceOnUse" x="154" y="90" width="410" height="410">
<circle cx="359" cy="295" r="205" fill="#C4C4C4"/>
</mask>
<g mask="url(#mask0_1732_441)">
<path d="M363.58 249.203L435.344 265.851C448.147 268.819 458.033 278.988 460.653 291.865L474.168 358.307L513.505 402.096L475.653 442.175L433.347 397.643L434.089 566.123C387.39 566.123 349.946 527.491 351.401 480.814L353.932 399.87L363.58 249.203Z" fill="#263238"/>
<path d="M353.932 399.87V489.676C353.932 531.9 319.709 566.123 277.485 566.123L252.992 421.394L244.086 367.955L287.876 360.533L353.932 399.87Z" fill="#263238"/>
</g>
<path d="M299.009 258.852L232.515 274.067C219.727 276.991 209.915 287.263 207.57 300.17L190.41 394.756C186.083 418.618 202.449 441.299 226.466 444.706L292.329 454.05L353.932 399.87L299.009 258.852Z" fill="#263238"/>
<path d="M161.702 585.419L218.725 435.384C229.769 406.326 260.956 390.28 291.015 398.184C317.445 405.139 335.985 428.867 336.342 456.195L337.447 541.533C337.93 578.94 306.668 608.947 269.321 606.943V529.012C254.937 571.31 211.132 596.107 167.461 586.666L161.702 585.419Z" fill="#E8EEF0"/>
<path d="M309.586 477.431C328.954 477.431 344.655 461.73 344.655 442.361C344.655 422.993 328.954 407.292 309.586 407.292C290.217 407.292 274.516 422.993 274.516 442.361C274.516 461.73 290.217 477.431 309.586 477.431Z" fill="#FFBE9D"/>
<path d="M344.113 448.811L344.283 448.863L353.769 415.011L318.306 405.065L310.773 431.941C311.849 431.844 312.933 431.785 314.038 431.785C326.804 431.785 337.975 438.613 344.113 448.811Z" fill="white"/>
<path d="M288.989 261.82C299.852 261.82 308.658 253.015 308.658 242.152C308.658 231.289 299.852 222.483 288.989 222.483C278.127 222.483 269.321 231.289 269.321 242.152C269.321 253.015 278.127 261.82 288.989 261.82Z" fill="#0D113D"/>
<path d="M314.685 217.482L282.97 229.669L269.558 194.771C261.676 174.263 271.911 151.248 292.418 143.365L301.013 140.062L323.317 198.081C326.285 205.822 322.426 214.506 314.685 217.482Z" fill="#0D113D"/>
<path d="M372.398 223.33L357.197 167.442C355.98 162.966 351.371 160.332 346.896 161.549L301.28 173.958L310.038 206.155C310.654 208.411 309.697 210.801 307.7 212.011L299.009 217.288V258.851L333.15 277.406L363.603 249.188C371.292 243.339 375.084 233.223 372.398 223.33Z" fill="#FFBE9D"/>
<path d="M299.009 227.679C304.748 227.679 309.4 223.027 309.4 217.288C309.4 211.55 304.748 206.897 299.009 206.897C293.27 206.897 288.618 211.55 288.618 217.288C288.618 223.027 293.27 227.679 299.009 227.679Z" fill="#FFBE9D"/>
<path d="M475.653 442.176L491.469 458.289C504.636 471.708 526.026 472.421 540.054 459.907C541.39 458.72 541.531 456.679 540.373 455.313L526.123 438.465L545.301 449.509C548.315 451.246 552.159 450.407 554.186 447.579C556.331 444.581 555.678 440.417 552.716 438.22L526.123 418.425H535.118C542.036 418.425 547.647 412.814 547.647 405.897V404.576C547.647 403.21 546.534 402.097 545.168 402.097H513.505L475.653 442.176Z" fill="#FFBE9D"/>
<path opacity="0.2" d="M312.888 294.5L327.42 274.297L333.15 277.407L317 305.047L312.888 294.5Z" fill="#2E2D31" fill-opacity="0.2"/>
<path opacity="0.2" d="M333.15 277.406L360.003 305.046L360.76 293.215L339.162 271.84L333.15 277.406Z" fill="#2E2D31" fill-opacity="0.2"/>
<path d="M346.161 166.671L292.7 187.23L301.102 140.033L331.443 128.373C342.02 124.305 353.888 129.583 357.955 140.159C362.015 150.735 356.738 162.603 346.161 166.671Z" fill="#0D113D"/>
<defs>
<filter id="filter0_d_1732_441" x="0.0022583" y="0" width="717.995" height="718.705" filterUnits="userSpaceOnUse" color-interpolation-filters="sRGB">
<feFlood flood-opacity="0" result="BackgroundImageFix"/>
<feColorMatrix in="SourceAlpha" type="matrix" values="0 0 0 0 0 0 0 0 0 0 0 0 0 0 0 0 0 0 127 0" result="hardAlpha"/>
<feOffset dy="64"/>
<feGaussianBlur stdDeviation="77"/>
<feComposite in2="hardAlpha" operator="out"/>
<feColorMatrix type="matrix" values="0 0 0 0 0 0 0 0 0 0 0 0 0 0 0 0 0 0 0.04 0"/>
<feBlend mode="normal" in2="BackgroundImageFix" result="effect1_dropShadow_1732_441"/>
<feBlend mode="normal" in="SourceGraphic" in2="effect1_dropShadow_1732_441" result="shape"/>
</filter>
</defs>
</svg>
