<svg width="30" height="30" viewBox="0 0 30 30" fill="none" xmlns="http://www.w3.org/2000/svg">
<rect width="30" height="29.9993" rx="14.9996" fill="#F5F5F5"/>
<path d="M17.6667 11C18.0349 10.6318 18.6318 10.6318 19 11C19.3682 11.3682 19.3682 11.9651 19 12.3333L16.3333 15L19 17.6667C19.3682 18.0349 19.3682 18.6318 19 19C18.6318 19.3682 18.0349 19.3682 17.6667 19L15 16.3333L12.3333 19C11.9651 19.3682 11.3682 19.3682 11 19C10.6318 18.6318 10.6318 18.0349 11 17.6667L13.6667 15L11 12.3333C10.6318 11.9651 10.6318 11.3682 11 11C11.3682 10.6318 11.9651 10.6318 12.3333 11L15 13.6667L17.6667 11Z" fill="#B7B7B7"/>
</svg>
