<svg width="40" height="40" viewBox="0 0 40 40" fill="none" xmlns="http://www.w3.org/2000/svg">
<rect width="40" height="40" rx="20" fill="#F5F5F5"/>
<path fill-rule="evenodd" clip-rule="evenodd" d="M9.44364 18.742C15.0808 16.286 18.8397 14.6669 20.7206 13.8846C26.0907 11.651 27.2065 11.2629 27.9338 11.2501C28.0938 11.2473 28.4514 11.287 28.6831 11.475C28.8788 11.6337 28.9326 11.8481 28.9583 11.9986C28.9841 12.1491 29.0162 12.492 28.9907 12.7599C28.6997 15.8175 27.4405 23.2376 26.7999 26.6623C26.5288 28.1113 25.9951 28.5972 25.4784 28.6448C24.3554 28.7481 23.5027 27.9026 22.4151 27.1897C20.7132 26.0741 19.7517 25.3796 18.0997 24.2909C16.1906 23.0328 17.4282 22.3413 18.5162 21.2113C18.801 20.9155 23.7486 16.4152 23.8444 16.0069C23.8564 15.9559 23.8675 15.7656 23.7544 15.6651C23.6414 15.5646 23.4745 15.5989 23.3541 15.6263C23.1834 15.665 20.4646 17.4621 15.1976 21.0174C14.4259 21.5473 13.7269 21.8055 13.1006 21.792C12.4102 21.7771 11.082 21.4016 10.0947 21.0807C8.88374 20.687 7.92128 20.4789 8.00509 19.8104C8.04874 19.4622 8.52826 19.1061 9.44364 18.742Z" fill="url(#paint0_linear_1488_88056)"/>
<defs>
<linearGradient id="paint0_linear_1488_88056" x1="18.5" y1="11.25" x2="18.5" y2="28.6534" gradientUnits="userSpaceOnUse">
<stop stop-color="#434247"/>
<stop offset="1"/>
</linearGradient>
</defs>
</svg>
