<svg width="40" height="40" viewBox="0 0 40 40" fill="none" xmlns="http://www.w3.org/2000/svg">
<rect width="40" height="40" rx="20" fill="#F5F5F5"/>
<path fill-rule="evenodd" clip-rule="evenodd" d="M30.0548 11H9.4724C8.66 11 8 11.666 8 12.4952V27.4256C8 28.2548 8.66 28.922 9.4724 28.922H30.0548C30.8612 28.922 31.5224 28.2548 31.5224 27.4256V12.4952C31.5224 11.666 30.8612 11 30.0548 11ZM16.3506 21.4951L19.7658 23.8531L23.1546 21.4783L29.013 27.4255H10.5078L16.3506 21.4951ZM9.47188 26.3744V16.7396L15.1119 20.6384L9.47188 26.3744ZM24.3875 20.6169L30.0551 16.6569V26.3745L24.3875 20.6169ZM30.0543 12.4953V14.9097L30.0207 14.8641L19.7607 22.0437L9.47188 14.9373V12.4953H30.0543Z" fill="#B7B7B7"/>
</svg>
