<svg width="40" height="40" viewBox="0 0 40 40" fill="none" xmlns="http://www.w3.org/2000/svg">
<rect width="40" height="40" rx="20" fill="#F5F5F5"/>
<g clip-path="url(#clip0_1488_88044)">
<path d="M25.657 22.828L24.243 21.414L25.657 20C26.0285 19.6286 26.3231 19.1876 26.5241 18.7023C26.7252 18.217 26.8286 17.6968 26.8286 17.1715C26.8286 16.6462 26.7252 16.126 26.5241 15.6407C26.3231 15.1554 26.0285 14.7144 25.657 14.343C25.2856 13.9716 24.8446 13.6769 24.3593 13.4759C23.874 13.2749 23.3538 13.1714 22.8285 13.1714C22.3032 13.1714 21.7831 13.2749 21.2977 13.4759C20.8124 13.6769 20.3715 13.9716 20 14.343L18.586 15.757L17.172 14.343L18.586 12.929C19.7143 11.8189 21.2356 11.1997 22.8184 11.2061C24.4012 11.2125 25.9174 11.8442 27.0366 12.9634C28.1558 14.0826 28.7875 15.5988 28.7939 17.1816C28.8004 18.7644 28.1811 20.2857 27.071 21.414L25.657 22.828V22.828ZM22.828 25.657L21.414 27.071C20.8585 27.6356 20.1968 28.0846 19.4669 28.3922C18.737 28.6998 17.9534 28.8598 17.1614 28.863C16.3694 28.8662 15.5845 28.7126 14.8522 28.411C14.1198 28.1094 13.4544 27.6658 12.8943 27.1057C12.3343 26.5456 11.8906 25.8802 11.589 25.1479C11.2874 24.4155 11.1338 23.6307 11.137 22.8386C11.1402 22.0466 11.3002 21.263 11.6078 20.5331C11.9154 19.8033 12.3644 19.1415 12.929 18.586L14.343 17.172L15.757 18.586L14.343 20C13.9716 20.3714 13.6769 20.8124 13.4759 21.2977C13.2749 21.783 13.1714 22.3032 13.1714 22.8285C13.1714 23.3538 13.2749 23.874 13.4759 24.3593C13.6769 24.8446 13.9716 25.2856 14.343 25.657C14.7145 26.0284 15.1554 26.3231 15.6407 26.5241C16.1261 26.7251 16.6462 26.8286 17.1715 26.8286C17.6968 26.8286 18.217 26.7251 18.7023 26.5241C19.1876 26.3231 19.6286 26.0284 20 25.657L21.414 24.243L22.828 25.657ZM22.828 15.757L24.243 17.172L17.172 24.242L15.757 22.828L22.828 15.758V15.757Z" fill="url(#paint0_linear_1488_88044)"/>
</g>
<defs>
<linearGradient id="paint0_linear_1488_88044" x1="19.9655" y1="11.2061" x2="19.9655" y2="28.8631" gradientUnits="userSpaceOnUse">
<stop stop-color="#434247"/>
<stop offset="1"/>
</linearGradient>
<clipPath id="clip0_1488_88044">
<rect x="8" y="8" width="24" height="24" rx="12" fill="white"/>
</clipPath>
</defs>
</svg>
