<svg width="40" height="40" viewBox="0 0 40 40" fill="none" xmlns="http://www.w3.org/2000/svg">
<rect width="40" height="40" rx="20" fill="#F5F5F5"/>
<path fill-rule="evenodd" clip-rule="evenodd" d="M20.0004 8C13.3607 8 8 13.4036 8 20.0687C8 26.1027 12.3805 31.0948 18.1228 32V23.5798H15.0746V20.0687H18.1228V17.4076C18.1228 14.391 19.9181 12.718 22.6396 12.718C23.9726 12.718 25.333 12.9645 25.333 12.9645V15.9273H23.8096C22.3403 15.9273 21.8772 16.8594 21.8772 17.8191V20.0687H25.1974L24.6528 23.5798H21.8772V32C27.5921 31.0948 32 26.1027 32 20.0687C32 13.4036 26.6126 8 20.0004 8Z" fill="#B7B7B7"/>
</svg>
