<svg width="40" height="40" viewBox="0 0 40 40" fill="none" xmlns="http://www.w3.org/2000/svg">
<rect width="40" height="40" rx="20" fill="#F5F5F5"/>
<path fill-rule="evenodd" clip-rule="evenodd" d="M20 8C13.3726 8 8 13.3726 8 20C8 26.6274 13.3726 32 20 32C26.6274 32 32 26.6274 32 20C32 13.3726 26.6274 8 20 8ZM15.1206 16.8237C16.0688 16.8237 16.6594 16.1959 16.6594 15.4113C16.6417 14.6102 16.0688 14 15.1385 14C14.2082 14 13.6 14.6102 13.6 15.4113C13.6 16.1959 14.1902 16.8237 15.1032 16.8237H15.1206ZM16.4803 26.1098V17.939H13.7608V26.1098H16.4803ZM26.2877 21.4249L26.2876 26.1098H23.5683V21.7384C23.5683 20.6404 23.1748 19.8911 22.1903 19.8911C21.439 19.8911 20.9915 20.3962 20.7949 20.8841C20.723 21.0589 20.7054 21.3025 20.7054 21.5467V26.11H17.9856C17.9856 26.11 18.0214 18.7059 17.9856 17.9392H20.7054V19.0965C21.0663 18.5401 21.7128 17.7471 23.1566 17.7471C24.9461 17.7471 26.2877 18.9151 26.2877 21.4249Z" fill="url(#paint0_linear_1488_88050)"/>
<defs>
<linearGradient id="paint0_linear_1488_88050" x1="20" y1="8" x2="20" y2="32" gradientUnits="userSpaceOnUse">
<stop stop-color="#434247"/>
<stop offset="1"/>
</linearGradient>
</defs>
</svg>
