<svg width="40" height="40" viewBox="0 0 40 40" fill="none" xmlns="http://www.w3.org/2000/svg">
<rect width="40" height="40" rx="20" fill="#F5F5F5"/>
<g clip-path="url(#clip0_4486_512821)">
<path d="M25.6568 22.828L24.2428 21.414L25.6568 20C26.0282 19.6286 26.3229 19.1876 26.5239 18.7023C26.7249 18.217 26.8284 17.6968 26.8284 17.1715C26.8284 16.6462 26.7249 16.126 26.5239 15.6407C26.3229 15.1554 26.0282 14.7144 25.6568 14.343C25.2853 13.9716 24.8444 13.6769 24.359 13.4759C23.8737 13.2749 23.3536 13.1714 22.8283 13.1714C22.303 13.1714 21.7828 13.2749 21.2975 13.4759C20.8122 13.6769 20.3712 13.9716 19.9998 14.343L18.5858 15.757L17.1718 14.343L18.5858 12.929C19.7141 11.8189 21.2353 11.1997 22.8181 11.2061C24.401 11.2125 25.9171 11.8442 27.0364 12.9634C28.1556 14.0826 28.7872 15.5988 28.7937 17.1816C28.8001 18.7644 28.1808 20.2857 27.0708 21.414L25.6568 22.828ZM22.8278 25.657L21.4138 27.071C20.8583 27.6356 20.1965 28.0846 19.4666 28.3922C18.7367 28.6998 17.9532 28.8598 17.1611 28.863C16.3691 28.8662 15.5843 28.7126 14.8519 28.411C14.1195 28.1094 13.4541 27.6658 12.8941 27.1057C12.334 26.5456 11.8904 25.8802 11.5888 25.1479C11.2872 24.4155 11.1335 23.6307 11.1368 22.8386C11.14 22.0466 11.3 21.263 11.6076 20.5331C11.9151 19.8033 12.3642 19.1415 12.9288 18.586L14.3428 17.172L15.7568 18.586L14.3428 20C13.9713 20.3714 13.6767 20.8124 13.4757 21.2977C13.2746 21.783 13.1712 22.3032 13.1712 22.8285C13.1712 23.3538 13.2746 23.874 13.4757 24.3593C13.6767 24.8446 13.9713 25.2856 14.3428 25.657C14.7142 26.0284 15.1552 26.3231 15.6405 26.5241C16.1258 26.7251 16.646 26.8286 17.1713 26.8286C17.6966 26.8286 18.2167 26.7251 18.702 26.5241C19.1874 26.3231 19.6283 26.0284 19.9998 25.657L21.4138 24.243L22.8278 25.657ZM22.8278 15.757L24.2428 17.172L17.1718 24.242L15.7568 22.828L22.8278 15.758V15.757Z" fill="#B7B7B7"/>
</g>
<defs>
<clipPath id="clip0_4486_512821">
<rect x="8" y="8" width="24" height="24" rx="12" fill="white"/>
</clipPath>
</defs>
</svg>
