<svg width="40" height="40" viewBox="0 0 40 40" fill="none" xmlns="http://www.w3.org/2000/svg">
<rect width="40" height="40" rx="20" fill="#F5F5F5"/>
<path fill-rule="evenodd" clip-rule="evenodd" d="M20 8C13.3726 8 8 13.3726 8 20C8 26.6274 13.3726 32 20 32C26.6274 32 32 26.6274 32 20C32 13.3726 26.6274 8 20 8ZM15.1212 16.8237C16.0694 16.8237 16.66 16.1959 16.66 15.4113C16.6423 14.6102 16.0694 14 15.1391 14C14.2088 14 13.6006 14.6102 13.6006 15.4113C13.6006 16.1959 14.1908 16.8237 15.1038 16.8237H15.1212ZM16.4812 26.1098V17.939H13.7617V26.1098H16.4812ZM26.2885 21.4249L26.2884 26.1098H23.569V21.7384C23.569 20.6404 23.1755 19.8911 22.191 19.8911C21.4397 19.8911 20.9922 20.3962 20.7957 20.8841C20.7238 21.0589 20.7061 21.3025 20.7061 21.5467V26.11H17.9863C17.9863 26.11 18.0222 18.7059 17.9863 17.9392H20.7061V19.0965C21.0671 18.5401 21.7135 17.7471 23.1573 17.7471C24.9469 17.7471 26.2885 18.9151 26.2885 21.4249Z" fill="#B7B7B7"/>
</svg>
