<svg width="31" height="30" viewBox="0 0 31 30" fill="none" xmlns="http://www.w3.org/2000/svg">
<rect x="0.316406" y="0.000488281" width="30" height="29.9993" rx="14.9996" fill="#F5F5F5"/>
<path d="M12.3164 15.0005C12.3164 15.8289 11.6448 16.5005 10.8164 16.5005C9.98797 16.5005 9.31641 15.8289 9.31641 15.0005C9.31641 14.1721 9.98797 13.5005 10.8164 13.5005C11.6448 13.5005 12.3164 14.1721 12.3164 15.0005ZM16.8163 15.0005C16.8163 15.8289 16.1447 16.5005 15.3163 16.5005C14.4879 16.5005 13.8164 15.8289 13.8164 15.0005C13.8164 14.1721 14.4879 13.5005 15.3163 13.5005C16.1447 13.5005 16.8163 14.1721 16.8163 15.0005ZM19.8163 16.5005C20.6447 16.5005 21.3163 15.8289 21.3163 15.0005C21.3163 14.1721 20.6447 13.5005 19.8163 13.5005C18.9879 13.5005 18.3163 14.1721 18.3163 15.0005C18.3163 15.8289 18.9879 16.5005 19.8163 16.5005Z" fill="#B7B7B7"/>
</svg>
