<svg width="40" height="40" viewBox="0 0 40 40" fill="none" xmlns="http://www.w3.org/2000/svg">
<rect width="40" height="40" rx="20" fill="#F5F5F5"/>
<path fill-rule="evenodd" clip-rule="evenodd" d="M9.64987 18.5623C16.0923 15.7555 20.3883 13.905 22.5378 13.0109C28.675 10.4582 29.9503 10.0148 30.7815 10.0002C30.9643 9.99694 31.3731 10.0422 31.6379 10.2571C31.8614 10.4385 31.9229 10.6836 31.9524 10.8556C31.9818 11.0276 32.0185 11.4194 31.9893 11.7256C31.6568 15.22 30.2177 23.7001 29.4856 27.614C29.1758 29.2701 28.5658 29.8254 27.9753 29.8797C26.6919 29.9978 25.7174 29.0316 24.4744 28.2168C22.5294 26.9418 21.4305 26.1481 19.5425 24.9039C17.3606 23.4661 18.7751 22.6758 20.0185 21.3843C20.344 21.0463 25.9985 15.9031 26.1079 15.4365C26.1216 15.3781 26.1343 15.1606 26.0051 15.0458C25.8759 14.9309 25.6851 14.9702 25.5475 15.0014C25.3524 15.0457 22.2452 17.0995 16.2258 21.1627C15.3439 21.7684 14.545 22.0635 13.8292 22.048C13.0402 22.031 11.5223 21.6019 10.394 21.2351C9.00999 20.7852 7.91003 20.5473 8.00581 19.7833C8.0557 19.3853 8.60372 18.9784 9.64987 18.5623Z" fill="#B7B7B7"/>
</svg>
