<svg width="40" height="40" viewBox="0 0 40 40" fill="none" xmlns="http://www.w3.org/2000/svg">
<rect width="40" height="40" rx="20" fill="#F5F5F5"/>
<path fill-rule="evenodd" clip-rule="evenodd" d="M19.6534 15.4373L19.7054 16.2807L18.8383 16.1775C15.6822 15.7816 12.9249 14.439 10.5839 12.1841L9.43933 11.0652L9.14453 11.8915C8.52024 13.7332 8.91909 15.6783 10.2197 16.9865C10.9133 17.7094 10.7573 17.8127 9.56072 17.3824C9.14453 17.2447 8.78036 17.1414 8.74568 17.193C8.62429 17.3135 9.04048 18.8799 9.36996 19.4995C9.82084 20.3602 10.7399 21.2036 11.7457 21.7028L12.5955 22.0987L11.5897 22.1159C10.6185 22.1159 10.5839 22.1331 10.6879 22.4946C11.0347 23.6134 12.4047 24.8011 13.9307 25.3175L15.0059 25.679L14.0695 26.2298C12.6822 27.0216 11.0521 27.4691 9.42199 27.5035C8.64163 27.5207 8 27.5896 8 27.6412C8 27.8134 10.1156 28.7773 11.3469 29.156C15.0406 30.2748 19.4279 29.7928 22.7228 27.8822C25.0639 26.5224 27.4049 23.82 28.4974 21.2036C29.087 19.8094 29.6767 17.2619 29.6767 16.0398C29.6767 15.248 29.7287 15.1447 30.6998 14.198C31.2721 13.6472 31.8096 13.0447 31.9137 12.8726C32.0871 12.5455 32.0698 12.5455 31.1853 12.8382C29.7113 13.3545 29.5032 13.2857 30.2316 12.5111C30.7692 11.9603 31.4108 10.962 31.4108 10.6693C31.4108 10.6177 31.1507 10.7038 30.8559 10.8587C30.5437 11.0308 29.8501 11.289 29.3298 11.4439L28.3934 11.7365L27.5437 11.1685C27.0755 10.8587 26.4165 10.5144 26.0697 10.4112C25.1853 10.1702 23.8326 10.2046 23.0349 10.48C20.8673 11.2546 19.4973 13.2513 19.6534 15.4373Z" fill="#B7B7B7"/>
</svg>
