<svg width="40" height="40" viewBox="0 0 40 40" fill="none" xmlns="http://www.w3.org/2000/svg">
<rect width="40" height="40" rx="20" fill="#F5F5F5"/>
<path fill-rule="evenodd" clip-rule="evenodd" d="M25.4995 22.4465C25.2009 22.2971 23.7329 21.5749 23.4592 21.4754C23.1855 21.3758 22.9865 21.3259 22.7874 21.6248C22.5884 21.9236 22.0162 22.5959 21.842 22.7951C21.6678 22.9943 21.4937 23.0193 21.1951 22.8698C20.8965 22.7205 19.9344 22.4052 18.7939 21.3883C17.9063 20.5969 17.3071 19.6193 17.1329 19.3205C16.9587 19.0217 17.1143 18.8601 17.2639 18.7113C17.3981 18.5776 17.5624 18.3627 17.7117 18.1884C17.861 18.0141 17.9107 17.8896 18.0103 17.6904C18.1098 17.4912 18.06 17.3169 17.9854 17.1675C17.9107 17.018 17.3136 15.5489 17.0648 14.9512C16.8225 14.3692 16.5763 14.4479 16.393 14.4388C16.219 14.4302 16.0198 14.4283 15.8207 14.4283C15.6217 14.4283 15.2982 14.503 15.0245 14.8018C14.7508 15.1006 13.9795 15.8228 13.9795 17.2919C13.9795 18.7611 15.0494 20.1805 15.1987 20.3797C15.348 20.579 17.3042 23.5939 20.2994 24.8868C21.0117 25.1944 21.5679 25.378 22.0015 25.5156C22.7168 25.7427 23.3677 25.7107 23.8822 25.6339C24.4558 25.5482 25.6488 24.9117 25.8976 24.2145C26.1464 23.5173 26.1464 22.9196 26.0717 22.7951C25.9971 22.6706 25.7981 22.5959 25.4995 22.4465ZM20.0515 29.8828H20.0475C18.2652 29.8821 16.5172 29.4035 14.9923 28.4988C14.7602 28.3611 14.4826 28.3221 14.2216 28.3906L13.8011 28.5008C12.4987 28.8424 11.3151 27.6458 11.6707 26.3472L11.7566 26.0334C11.8313 25.7607 11.7881 25.4692 11.6376 25.2298C10.6434 23.6489 10.1183 21.8218 10.1191 19.9457C10.1213 14.4712 14.5769 10.0173 20.0554 10.0173C22.7083 10.0184 25.2021 11.0525 27.0773 12.9292C28.9525 14.806 29.9847 17.3007 29.9836 19.9537C29.9814 25.4286 25.5259 29.8828 20.0515 29.8828ZM28.5046 11.5032C26.2485 9.24513 23.2481 8.00101 20.0514 7.99975C13.4649 7.99975 8.1042 13.3583 8.10156 19.9449C8.10087 21.631 8.45361 23.2849 9.1312 24.8072C9.45548 25.5357 9.5781 26.3499 9.36747 27.119C8.76036 29.3359 10.781 31.3786 13.0043 30.7956L13.1553 30.756C13.9138 30.5571 14.7128 30.6719 15.4361 30.9746C16.889 31.5827 18.4568 31.8997 20.0467 31.9004H20.0515H20.0516C26.6375 31.9004 31.9986 26.5411 32.0013 19.9545C32.0025 16.7625 30.7608 13.7611 28.5046 11.5032Z" fill="#B7B7B7"/>
</svg>
