<svg width="40" height="40" viewBox="0 0 40 40" fill="none" xmlns="http://www.w3.org/2000/svg">
<rect width="40" height="40" rx="20" fill="#F5F5F5"/>
<path fill-rule="evenodd" clip-rule="evenodd" d="M25.4981 22.4465C25.1995 22.2971 23.7316 21.5749 23.4578 21.4754C23.1841 21.3758 22.9851 21.3259 22.7861 21.6248C22.587 21.9236 22.0148 22.5959 21.8406 22.7951C21.6665 22.9943 21.4923 23.0193 21.1937 22.8698C20.8951 22.7205 19.9331 22.4052 18.7926 21.3883C17.905 20.5969 17.3057 19.6193 17.1315 19.3205C16.9574 19.0217 17.113 18.8601 17.2625 18.7113C17.3968 18.5776 17.561 18.3627 17.7103 18.1884C17.8596 18.0141 17.9094 17.8896 18.0089 17.6904C18.1085 17.4912 18.0587 17.3169 17.984 17.1675C17.9094 17.018 17.3123 15.5489 17.0635 14.9512C16.8211 14.3692 16.5749 14.4479 16.3917 14.4388C16.2177 14.4302 16.0184 14.4283 15.8194 14.4283C15.6203 14.4283 15.2969 14.503 15.0231 14.8018C14.7495 15.1006 13.9781 15.8228 13.9781 17.2919C13.9781 18.7611 15.0481 20.1805 15.1974 20.3797C15.3466 20.579 17.3028 23.5939 20.298 24.8868C21.0104 25.1944 21.5666 25.378 22.0002 25.5156C22.7155 25.7427 23.3664 25.7107 23.8809 25.6339C24.4545 25.5482 25.6474 24.9117 25.8963 24.2145C26.145 23.5173 26.145 22.9196 26.0704 22.7951C25.9958 22.6706 25.7967 22.5959 25.4981 22.4465M20.0501 29.8828H20.0461C18.2639 29.8821 16.5158 29.4035 14.9909 28.4988V28.4988C14.7589 28.3611 14.4813 28.3221 14.2202 28.3906L13.7997 28.5008C12.4974 28.8424 11.3137 27.6458 11.6693 26.3472L11.7553 26.0334C11.83 25.7607 11.7868 25.4692 11.6363 25.2298V25.2298C10.6421 23.6489 10.117 21.8218 10.1177 19.9457C10.1199 14.4712 14.5755 10.0173 20.0541 10.0173C22.707 10.0184 25.2007 11.0525 27.076 12.9292C28.9512 14.806 29.9833 17.3007 29.9823 19.9537C29.9801 25.4286 25.5245 29.8828 20.0501 29.8828M28.5032 11.5032C26.2471 9.24514 23.2468 8.00101 20.0501 7.99975C13.4635 7.99975 8.10286 13.3583 8.10022 19.9449C8.09953 21.631 8.45226 23.2849 9.12986 24.8072C9.45413 25.5357 9.57676 26.3499 9.36613 27.119V27.119C8.75901 29.3359 10.7796 31.3786 13.003 30.7956L13.154 30.756C13.9124 30.5571 14.7114 30.6719 15.4347 30.9746C16.8876 31.5827 18.4554 31.8997 20.0453 31.9004H20.0502H20.0503C26.6362 31.9004 31.9973 26.5411 32 19.9545C32.0012 16.7625 30.7594 13.7611 28.5032 11.5032" fill="url(#paint0_linear_1488_88038)"/>
<defs>
<linearGradient id="paint0_linear_1488_88038" x1="20.0501" y1="31.9004" x2="20.0501" y2="7.99975" gradientUnits="userSpaceOnUse">
<stop stop-color="#434247"/>
<stop offset="1"/>
</linearGradient>
</defs>
</svg>
