<svg width="289" height="96" viewBox="0 0 289 96" fill="none" xmlns="http://www.w3.org/2000/svg">
<path fill-rule="evenodd" clip-rule="evenodd" d="M47.9955 95.7068C74.2366 95.7068 95.5605 74.7093 95.9844 48.6448L95.9908 47.8534L95.9844 47.062C95.5605 20.9975 74.2366 0 47.9955 0C21.4892 0 0 21.4238 0 47.8534C0 74.283 21.4892 95.7068 47.9955 95.7068ZM47.9955 2.49351C72.8749 2.49351 93.0894 22.3985 93.4912 47.1033L93.4973 47.8534L93.4912 48.6035C93.0894 73.3083 72.8749 93.2133 47.9955 93.2133C22.8646 93.2133 2.49351 72.9042 2.49351 47.8534C2.49351 22.8027 22.8646 2.49351 47.9955 2.49351Z" fill="#065DB1"/>
<path fill-rule="evenodd" clip-rule="evenodd" d="M82.1553 47.7995C82.1553 28.9613 66.8374 13.6899 47.9418 13.6899C29.0461 13.6899 13.728 28.9613 13.728 47.7995C13.728 66.6377 29.0461 81.9091 47.9418 81.9091C66.8374 81.9091 82.1553 66.6377 82.1553 47.7995Z" fill="#065DB1"/>
<path fill-rule="evenodd" clip-rule="evenodd" d="M48.3856 5.69893L48.3148 4.5105L42.8624 4.83403L42.9334 6.02225L44.9562 5.9021L45.2858 11.4249L46.7015 11.3404L46.3718 5.81806L48.3856 5.69893ZM35.8121 7.56804L36.2864 9.31132L37.7499 8.91538C38.0407 8.83684 38.249 8.74301 38.3752 8.63327C38.5988 8.44009 38.6613 8.16185 38.5622 7.79814C38.4552 7.40506 38.259 7.17435 37.9734 7.10662C37.8129 7.06807 37.593 7.08663 37.3135 7.16231L35.8121 7.56804ZM27.7553 10.9903L30.9198 9.34658L30.3684 8.29094L25.9824 10.5687L29.098 16.5308L33.6299 14.1772L33.0697 13.1055L29.7591 14.8247L28.9578 13.2919L31.8629 11.783L31.3217 10.7478L28.4171 12.2563L27.7553 10.9903ZM20.3206 14.4757C19.676 15.0112 19.3233 15.665 19.2615 16.4367C19.1901 17.3236 19.5312 18.2175 20.285 19.1189C20.9823 19.9526 21.742 20.4338 22.5641 20.5617C23.384 20.6876 24.1627 20.4442 24.8995 19.8316C25.4951 19.3368 25.836 18.7544 25.9226 18.0847C26.0087 17.4156 25.8628 16.7608 25.4849 16.1207L24.4097 17.0146C24.5613 17.3397 24.6388 17.6139 24.6427 17.8362C24.6548 18.2456 24.4752 18.6049 24.104 18.9135C23.7422 19.2142 23.3234 19.3182 22.8469 19.225C22.3709 19.1318 21.8907 18.7956 21.4062 18.2167C20.9221 17.6376 20.659 17.097 20.6168 16.5956C20.5747 16.0942 20.7466 15.6831 21.132 15.3629C21.5104 15.0479 21.8901 14.9227 22.2703 14.9867C22.4835 15.023 22.7282 15.1365 23.004 15.327L24.0862 14.4272C23.8006 14.1184 23.414 13.8956 22.9261 13.7587C22.0509 13.5203 21.1824 13.7591 20.3206 14.4757ZM39.0944 6.13728C38.8736 5.98286 38.6297 5.88678 38.3619 5.84864C38.0943 5.8109 37.7366 5.84741 37.2898 5.95879L34.1768 6.80065L35.9416 13.2889L37.2705 12.9295L36.5783 10.3853L37.9064 10.0263C38.2854 9.9239 38.562 9.92308 38.7376 10.0237C38.9129 10.1242 39.0596 10.3806 39.1777 10.7931L39.3506 11.3936C39.4054 11.5837 39.4752 11.7647 39.5601 11.9373C39.6016 12.0203 39.6624 12.1284 39.743 12.2612L41.2442 11.8553L41.1998 11.6925C41.0468 11.6488 40.9296 11.548 40.8479 11.3904C40.7953 11.2914 40.7288 11.0936 40.6484 10.7972L40.5299 10.3612C40.4062 9.90656 40.2515 9.58549 40.0661 9.39741C39.8805 9.20974 39.6217 9.09632 39.2886 9.05716C39.6141 8.83685 39.8144 8.55678 39.8895 8.21673C39.9646 7.87668 39.9599 7.55255 39.8762 7.24432C39.8067 6.98913 39.7046 6.7727 39.5699 6.59483C39.4355 6.41695 39.2769 6.26437 39.0944 6.13728ZM52.254 11.5411L50.86 11.4113L51.4863 4.71809L52.8801 4.84762L52.254 11.5411ZM61.2933 6.55726L56.6315 5.38576L54.9856 11.8958L56.3428 12.2369L57.034 9.50365L59.9304 10.2317L60.2167 9.09955L57.32 8.37172L57.6991 6.87242L61.0036 7.70265L61.2933 6.55726ZM63.0081 14.4619L61.7189 13.9181L64.3475 7.72707L65.6365 8.27111L63.0081 14.4619ZM69.6544 11.6695L72.6773 13.5586L73.3118 12.5501L69.1216 9.93172L65.5406 15.6279L69.8701 18.3333L70.5138 17.3095L67.3509 15.3327L68.2717 13.8683L71.0472 15.6026L71.669 14.6134L68.8937 12.8789L69.6544 11.6695ZM76.6634 16.8265L73.5908 19.9672L74.5224 20.8734C74.9991 21.3368 75.5602 21.4262 76.2063 21.1408C76.5599 20.9841 76.9108 20.7281 77.258 20.3734C77.737 19.8834 78.0278 19.4324 78.1301 19.0203C78.2326 18.6081 78.0541 18.1789 77.595 17.7324L76.6634 16.8265ZM79.4537 19.3039C79.5333 18.8037 79.4582 18.3337 79.2282 17.8933C79.0932 17.6347 78.8781 17.3576 78.5831 17.0625L76.5018 15.0385L71.7937 19.8512L73.875 21.8749C74.6048 22.5846 75.4374 22.81 76.3725 22.5514C77.0649 22.358 77.7241 21.9414 78.35 21.3013C78.5972 21.049 78.8261 20.7536 79.0377 20.4154C79.2491 20.0774 79.3876 19.7068 79.4537 19.3039ZM74.0891 74.1351L75.2803 73.0503L76.4697 77.7179L78.1929 79.5985L77.1412 80.556L75.4184 78.6752L70.8051 77.1251L72.0442 75.9967L75.0904 77.2306L74.0891 74.1351ZM26.1544 77.4109C25.473 76.9081 24.745 76.7188 23.9702 76.842C23.0795 76.9836 22.2803 77.5311 21.5722 78.4841C20.9174 79.3651 20.6248 80.2239 20.6946 81.0593C20.7664 81.8921 21.192 82.5965 21.9709 83.1718C22.6007 83.6366 23.2555 83.8319 23.9356 83.7564C24.6155 83.6809 25.2257 83.3823 25.7654 82.8594L24.629 82.0202C24.3448 82.2461 24.0933 82.3874 23.8748 82.4441C23.4744 82.5537 23.0783 82.4639 22.6856 82.1738C22.3032 81.8913 22.1007 81.506 22.079 81.0177C22.0571 80.5291 22.2738 79.9789 22.7288 79.3668C23.1837 78.7542 23.653 78.3676 24.1367 78.2067C24.6208 78.046 25.0665 78.1161 25.4743 78.4172C25.8745 78.7128 26.0885 79.0545 26.1159 79.4418C26.1313 79.6597 26.0779 79.9259 25.9561 80.2415L27.1003 81.0864C27.3362 80.7327 27.4635 80.3012 27.4821 79.7911C27.5083 78.8774 27.0655 78.0841 26.1544 77.4109ZM34.0055 85.6597C33.7047 86.3637 33.3202 86.8414 32.8525 87.0936C32.3845 87.3455 31.8912 87.3614 31.3723 87.1409C30.8535 86.9206 30.521 86.5538 30.3753 86.0412C30.2292 85.528 30.3067 84.9199 30.6075 84.2161C30.9085 83.5122 31.295 83.035 31.767 82.7849C32.2393 82.5344 32.7348 82.5196 33.2537 82.7401C33.7724 82.9604 34.1024 83.3269 34.2436 83.8396C34.3844 84.3522 34.3054 84.9586 34.0055 85.6597ZM33.2652 88.3909C32.5838 88.6763 31.7953 88.6283 30.8993 88.2477C30.0031 87.8668 29.4224 87.333 29.1568 86.6458C28.7769 85.7794 28.8266 84.7852 29.3062 83.6631C29.7958 82.5183 30.4802 81.7939 31.3607 81.4898C32.042 81.2052 32.8308 81.2525 33.7266 81.6332C34.6224 82.0142 35.2032 82.5481 35.4688 83.2355C35.8562 84.0778 35.8048 85.0714 35.3154 86.2162C34.8356 87.3383 34.1524 88.0633 33.2652 88.3909ZM43.7186 84.5144L45.7434 84.8247L44.7083 91.5394L43.3968 91.3384L44.0971 86.7966C44.1172 86.6663 44.1471 86.4833 44.1863 86.2483C44.2258 86.0135 44.2551 85.8324 44.2749 85.7047L42.1296 91.144L40.7618 90.9343L40.3638 85.1054C40.344 85.2327 40.3174 85.4144 40.2842 85.6502C40.2511 85.8862 40.2243 86.0694 40.2042 86.2002L39.5037 90.7416L38.1923 90.5408L39.2278 83.826L41.2758 84.1399L41.6877 89.6076L43.7186 84.5144ZM51.5293 85.7632C51.8534 85.7361 52.1114 85.7899 52.3036 85.9248C52.4957 86.0598 52.6068 86.3034 52.6367 86.6554C52.6663 87.0075 52.5984 87.2721 52.4323 87.4496C52.2663 87.627 52.0214 87.7292 51.6977 87.7564L50.4191 87.8637L50.2507 85.8705L51.5293 85.7632ZM53.5924 88.2727C53.2227 88.6368 52.669 88.8495 51.9316 88.9118L50.5175 89.0301L50.723 91.464L49.3136 91.5826L48.7421 84.813L51.6574 84.5685C52.3295 84.512 52.8801 84.6415 53.3092 84.9571C53.7383 85.2726 53.984 85.7961 54.0454 86.528C54.1129 87.3272 53.9617 87.9087 53.5924 88.2727ZM58.9676 87.5172L60.6419 87.026L59.0594 84.7038L58.9676 87.5172ZM59.4067 82.9828L57.8612 83.4361L57.451 90.6381L58.8798 90.2189L58.9275 88.7492L61.3347 88.0432L62.1617 89.2563L63.6429 88.822L59.4067 82.9828ZM65.3011 80.5355L64.0035 81.2707L67.3705 87.177L68.5239 86.5234L66.1351 82.3327L70.9358 85.1569L72.1733 84.4554L68.8063 78.5491L67.6529 79.2029L70.0008 83.3212L65.3011 80.5355Z" fill="#065DB1"/>
<path fill-rule="evenodd" clip-rule="evenodd" d="M64.7411 53.2307H65.6489C64.4495 55.15 62.9229 56.8496 61.1465 58.2543C60.9407 58.4171 60.7318 58.576 60.5196 58.7308C58.868 59.9339 57.0212 60.8902 55.0352 61.5444C54.7476 61.6392 54.457 61.7282 54.1634 61.81C52.5668 62.2557 50.8886 62.5076 49.157 62.54C49.0297 62.5425 48.9025 62.5447 48.7746 62.5447C48.6469 62.5447 48.5197 62.5425 48.3924 62.54C46.6608 62.5076 44.9826 62.2557 43.3858 61.81C43.0924 61.7282 42.8018 61.6392 42.5142 61.5444C40.528 60.8902 38.6814 59.9339 37.0298 58.7308C36.8174 58.576 36.6085 58.4171 36.4029 58.2543C34.6265 56.8496 33.0999 55.15 31.9005 53.2307H32.8083C33.9547 54.965 35.3829 56.5024 37.0298 57.778C37.6535 57.3239 38.3045 56.9045 38.9808 56.5234C38.1871 55.537 37.4806 54.432 36.8766 53.2307H37.7294C38.2916 54.2975 38.9392 55.2793 39.6593 56.1589C40.7429 55.6026 41.885 55.1426 43.074 54.7897C42.8847 54.2916 42.7102 53.7698 42.5477 53.2307H43.3453C43.491 53.6984 43.6477 54.1494 43.8145 54.5841C45.2819 54.2096 46.8151 53.9983 48.3924 53.9685V53.2307H49.157V53.9685C50.7343 53.9983 52.2675 54.2096 53.7349 54.5841C53.9017 54.1494 54.0584 53.6984 54.2039 53.2307H55.0015C54.8392 53.7698 54.6645 54.2916 54.4756 54.7897C55.6644 55.1426 56.8063 55.6026 57.8902 56.1589C58.6102 55.2793 59.2578 54.2975 59.82 53.2307H60.6728C60.0688 54.432 59.3621 55.537 58.5686 56.5234C59.2449 56.9045 59.8959 57.3239 60.5196 57.778C62.1665 56.5024 63.5947 54.965 64.7411 53.2307ZM54.3275 60.9679C56.3374 60.3626 58.2071 59.4382 59.8755 58.2542C59.2962 57.8434 58.6926 57.4638 58.0671 57.1178C56.7822 58.5708 55.2973 59.7286 53.6748 60.5099C53.8952 60.6525 54.1125 60.8057 54.3275 60.9679ZM49.157 61.7779C50.6073 61.7493 52.0183 61.5602 53.3726 61.2281C53.1886 61.1055 53.002 60.9903 52.8138 60.8824C52.5034 60.7045 52.1869 60.547 51.8652 60.4101C51.5362 60.2696 51.2021 60.15 50.8624 60.0546C50.4514 59.9389 50.0327 59.8577 49.6084 59.811C49.4586 59.7945 49.3082 59.7823 49.157 59.7747C49.03 59.7684 48.9027 59.7641 48.7746 59.7641C48.6467 59.7641 48.5195 59.7684 48.3924 59.7747C48.2412 59.7823 48.0908 59.7945 47.9412 59.811C47.5167 59.8577 47.098 59.9389 46.687 60.0546C46.3475 60.15 46.0132 60.2696 45.6842 60.4101C45.3625 60.547 45.046 60.7045 44.7356 60.8824C44.5472 60.9903 44.3608 61.1055 44.1768 61.2281C45.5311 61.5602 46.9419 61.7493 48.3924 61.7779C48.5197 61.7801 48.6469 61.7826 48.7746 61.7826C48.9025 61.7826 49.0297 61.7801 49.157 61.7779ZM37.6737 58.2542C39.3423 59.4382 41.2118 60.3626 43.2219 60.9679C43.4368 60.8057 43.6543 60.6525 43.8748 60.5099C42.2519 59.7286 40.7672 58.5708 39.4821 57.1178C38.8568 57.4638 38.253 57.8434 37.6737 58.2542ZM43.3592 55.5005C42.2512 55.825 41.185 56.2458 40.1712 56.754C41.4864 58.2063 43.0128 59.3326 44.6793 60.04C45.0961 59.8213 45.5207 59.6353 45.9524 59.4847C44.9846 58.6027 44.1038 57.2582 43.3592 55.5005ZM48.3924 54.731C46.9159 54.7597 45.4802 54.9547 44.1038 55.2981C44.8893 57.1221 45.8354 58.465 46.8451 59.2256C47.3538 59.1067 47.8702 59.0349 48.3924 59.0114V54.731ZM53.4456 55.2983C52.0692 54.9547 50.6333 54.7597 49.157 54.731V59.0114C49.6792 59.0349 50.1958 59.1067 50.7045 59.2256C51.714 58.465 52.6603 57.1221 53.4456 55.2983ZM57.3782 56.754C56.3644 56.2458 55.298 55.825 54.1902 55.5005C53.4456 57.2582 52.565 58.6029 51.597 59.4847C52.0287 59.6353 52.4533 59.8213 52.8701 60.04C54.5364 59.3326 56.0628 58.2063 57.3782 56.754ZM61.0088 27.6623C62.8136 29.0639 64.3652 30.7686 65.5863 32.6967H64.6748C63.5056 30.9514 62.0488 29.4094 60.371 28.1361C59.7547 28.5765 59.1116 28.9827 58.4448 29.3523C59.2667 30.3496 59.9986 31.4721 60.6229 32.6967H59.7682C59.1849 31.6055 58.5115 30.6054 57.7631 29.714C56.6938 30.2533 55.568 30.6982 54.3976 31.0405C54.6043 31.5688 54.7964 32.1208 54.9726 32.6967H54.1717C54.0124 32.1922 53.8397 31.7075 53.6557 31.2429C52.2122 31.6049 50.7061 31.8095 49.157 31.8387V32.6967H48.3923V31.8387C46.8433 31.8095 45.3371 31.6049 43.8936 31.2429C43.7095 31.7075 43.537 32.1922 43.3776 32.6967H42.5769C42.7529 32.1208 42.945 31.5688 43.1517 31.0405C41.9815 30.6982 40.8558 30.2533 39.7863 29.714C39.0378 30.6054 38.3644 31.6055 37.7813 32.6967H36.9264C37.5507 31.4721 38.2826 30.3496 39.1045 29.3523C38.4377 28.9827 37.7946 28.5765 37.1781 28.1361C35.5007 29.4094 34.0439 30.9514 32.8744 32.6967H31.963C33.1843 30.7686 34.7359 29.0639 36.5408 27.6623C36.7497 27.5001 36.9627 27.3428 37.1781 27.1888C38.8594 25.9875 40.7381 25.0402 42.757 24.404C43.0545 24.3101 43.3553 24.2232 43.6587 24.1431C45.1734 23.7435 46.7587 23.5168 48.3923 23.4862C48.5196 23.4838 48.6469 23.4813 48.7748 23.4813C48.9024 23.4813 49.0297 23.4838 49.157 23.4862C50.7904 23.5168 52.3759 23.7435 53.8906 24.1431C54.1943 24.2232 54.4948 24.3101 54.7923 24.404C56.8112 25.0402 58.6899 25.9875 60.371 27.1888C60.5867 27.3428 60.7997 27.5001 61.0088 27.6623ZM57.9353 28.7622C58.5518 28.4274 59.1474 28.0602 59.7199 27.6623C58.0135 26.4769 56.1016 25.5606 54.0482 24.9762C53.8384 25.1247 53.6263 25.2646 53.4116 25.3945C55.0814 26.1497 56.6109 27.3012 57.9353 28.7622ZM54.1069 30.3312C55.1944 30.0181 56.2414 29.6117 57.2393 29.1215C55.8725 27.6526 54.2855 26.5309 52.5551 25.8586C52.1621 26.0468 51.7625 26.2057 51.3569 26.3345C52.3828 27.1763 53.3185 28.5265 54.1069 30.3312ZM49.157 31.0764C50.6025 31.0483 52.0088 30.8602 53.3588 30.5302C52.5081 28.6208 51.4779 27.2639 50.3873 26.5824C49.9816 26.6613 49.5709 26.7099 49.157 26.7286V31.0764ZM44.1905 30.5302C45.5405 30.8602 46.9468 31.0483 48.3924 31.0764V26.7286C47.9784 26.7099 47.568 26.6613 47.162 26.5824C46.0715 27.2639 45.0413 28.6208 44.1905 30.5302ZM40.3101 29.1215C41.308 29.6117 42.3551 30.0181 43.4424 30.3312C44.2308 28.5265 45.1667 27.1763 46.1924 26.3345C45.7869 26.2057 45.387 26.0468 44.9942 25.8586C43.2638 26.5309 41.6771 27.6526 40.3101 29.1215ZM37.8294 27.6623C38.4019 28.0602 38.9977 28.4274 39.614 28.7622C40.9384 27.3012 42.4679 26.1497 44.1377 25.3945C43.9231 25.2646 43.7109 25.1247 43.5012 24.9762C41.4477 25.5606 39.5358 26.4769 37.8294 27.6623ZM48.3924 24.2484C47.0585 24.2745 45.7576 24.4356 44.5037 24.72C44.6828 24.8295 44.8641 24.9323 45.0472 25.028C45.3911 25.2083 45.7418 25.3652 46.0989 25.4955C46.404 25.6071 46.7137 25.6989 47.0272 25.7725C47.4749 25.877 47.9303 25.9421 48.3924 25.9653C48.5194 25.9716 48.6467 25.9761 48.7748 25.9761C48.9026 25.9761 49.0299 25.9716 49.157 25.9653C49.619 25.9421 50.0746 25.877 50.5221 25.7725C50.8356 25.6989 51.1454 25.6071 51.4504 25.4955C51.8075 25.3652 52.1582 25.2083 52.5019 25.028C52.6853 24.9323 52.8665 24.8295 53.0458 24.72C51.7919 24.4356 50.4908 24.2745 49.157 24.2484C49.0297 24.2459 48.9024 24.2437 48.7748 24.2437C48.6469 24.2437 48.5196 24.2459 48.3924 24.2484ZM35.5332 47.4778V51.53H25.3907V47.4778H27.8331V38.5482H25.3907V34.4715H35.5332V38.5482H33.0908V47.4778H35.5332ZM46.5182 51.9183C43.3668 51.9183 41.6933 50.8021 40.7588 49.9769V51.5301H37.1076V44.8085H41.2804C41.3021 46.4586 41.8672 48.2783 45.1272 48.2783C47.4092 48.2783 47.931 47.4777 47.931 47.0167C47.931 46.4343 47.4092 46.0704 45.1708 45.4394C44.3231 45.1969 43.3887 44.9299 42.454 44.6873C39.4765 43.9108 37.0642 42.6246 37.0642 39.2517C37.0642 35.8789 40.172 33.9864 43.7799 33.9864C46.5834 33.9864 48.2786 35.321 48.8654 36.1702V34.4716H52.5384V40.2467H48.4961C48.2569 38.912 47.6484 37.6261 45.1925 37.6261C43.3234 37.6261 42.7583 38.0628 42.7583 38.5481C42.7583 38.9608 43.2364 39.3004 44.671 39.6643C46.2792 40.0768 47.8657 40.4895 49.474 40.926C51.9951 41.6055 53.7339 43.5226 53.7339 46.216C53.7339 49.9286 50.93 51.9183 46.5182 51.9183ZM63.2669 51.9428C57.6139 51.9428 54.3369 47.6719 54.3369 42.9645C54.3369 37.8688 58.1121 34.0349 63.2094 34.0349C68.0768 34.0349 72.1586 37.5047 72.1586 42.9887C72.1586 47.7204 68.8625 51.9428 63.2669 51.9428ZM63.2286 37.9417C61.4082 37.9417 59.7983 39.5674 59.7983 42.9887C59.7983 46.1432 61.1972 48.0358 63.2286 48.0358C65.1834 48.0358 66.6779 46.1432 66.6779 42.9887C66.6779 39.616 64.8958 37.9417 63.2286 37.9417ZM25.7574 69.0916L27.0172 68.9533C27.0481 69.2089 27.1283 69.398 27.258 69.5212C27.3877 69.6444 27.559 69.7058 27.7722 69.7058C28.0409 69.7058 28.2692 69.5828 28.4577 69.3366C28.6461 69.0904 28.7664 68.5792 28.819 67.8034C28.4916 68.182 28.0824 68.3713 27.5915 68.3713C27.0573 68.3713 26.5963 68.1657 26.2088 67.7551C25.8215 67.3438 25.6277 66.8092 25.6277 66.1501C25.6277 65.4637 25.8321 64.9103 26.2413 64.4901C26.6505 64.0698 27.1715 63.8597 27.8045 63.8597C28.4933 63.8597 29.0582 64.1253 29.4999 64.6563C29.9413 65.1875 30.1623 66.061 30.1623 67.2769C30.1623 68.5145 29.9321 69.4072 29.4721 69.9553C29.0119 70.5032 28.4128 70.7771 27.675 70.7771C27.1436 70.7771 26.7146 70.6366 26.3872 70.3547C26.0598 70.073 25.8499 69.652 25.7574 69.0916ZM28.7032 66.2564C28.7032 65.8378 28.6066 65.5129 28.4137 65.2821C28.2207 65.0512 27.9975 64.9356 27.7444 64.9356C27.5036 64.9356 27.3036 65.0304 27.1445 65.2197C26.9853 65.4092 26.9059 65.7193 26.9059 66.1501C26.9059 66.5875 26.9924 66.9083 27.1653 67.1129C27.3382 67.3177 27.5545 67.4201 27.8137 67.4201C28.064 67.4201 28.2747 67.3218 28.4462 67.1246C28.6174 66.9275 28.7032 66.6383 28.7032 66.2564ZM33.395 63.8599C34.0528 63.8599 34.567 64.0939 34.9375 64.5618C35.3789 65.1158 35.5999 66.0348 35.5999 67.3187C35.5999 68.5993 35.3775 69.5199 34.9328 70.0801C34.5654 70.5417 34.0528 70.7726 33.395 70.7726C32.7341 70.7726 32.2015 70.5195 31.797 70.0132C31.3925 69.5067 31.1903 68.6038 31.1903 67.3046C31.1903 66.0301 31.4125 65.1128 31.8572 64.5524C32.2246 64.0906 32.7374 63.8599 33.395 63.8599ZM33.395 64.9357C33.2374 64.9357 33.0969 64.9859 32.9735 65.0859C32.8499 65.186 32.7542 65.3651 32.6864 65.6238C32.5968 65.9595 32.552 66.5244 32.552 67.3187C32.552 68.1128 32.5921 68.6585 32.6725 68.9557C32.7527 69.2527 32.8538 69.4506 32.976 69.5489C33.0977 69.6476 33.2374 69.6968 33.395 69.6968C33.5525 69.6968 33.6929 69.6468 33.8165 69.5467C33.9401 69.4467 34.0356 69.2672 34.1038 69.0087C34.1932 68.6762 34.238 68.1128 34.238 67.3187C34.238 66.5244 34.1979 65.9787 34.1177 65.6815C34.0373 65.3845 33.9362 65.186 33.814 65.0859C33.6921 64.9859 33.5525 64.9357 33.395 64.9357ZM38.8605 63.8599C39.5183 63.8599 40.0325 64.0939 40.403 64.5618C40.8444 65.1158 41.0654 66.0348 41.0654 67.3187C41.0654 68.5993 40.843 69.5199 40.3983 70.0801C40.0309 70.5417 39.5183 70.7726 38.8605 70.7726C38.1996 70.7726 37.667 70.5195 37.2625 70.0132C36.858 69.5067 36.6558 68.6038 36.6558 67.3046C36.6558 66.0301 36.878 65.1128 37.3227 64.5524C37.6901 64.0906 38.2029 63.8599 38.8605 63.8599ZM38.8605 64.9357C38.7029 64.9357 38.5624 64.9859 38.439 65.0859C38.3154 65.186 38.2197 65.3651 38.1519 65.6238C38.0623 65.9595 38.0175 66.5244 38.0175 67.3187C38.0175 68.1128 38.0576 68.6585 38.138 68.9557C38.2182 69.2527 38.3193 69.4506 38.4415 69.5489C38.5632 69.6476 38.7029 69.6968 38.8605 69.6968C39.018 69.6968 39.1584 69.6468 39.282 69.5467C39.4056 69.4467 39.5011 69.2672 39.5693 69.0087C39.6587 68.6762 39.7035 68.1128 39.7035 67.3187C39.7035 66.5244 39.6634 65.9787 39.5832 65.6815C39.5028 65.3845 39.4017 65.186 39.2795 65.0859C39.1576 64.9859 39.018 64.9357 38.8605 64.9357ZM45.4561 70.6574H44.1545V65.767C43.6788 66.2102 43.1184 66.5382 42.4731 66.7508V65.573C42.8127 65.4622 43.1818 65.2523 43.5802 64.9426C43.9786 64.6334 44.2517 64.2723 44.4001 63.8599H45.4561V70.6574ZM48.1191 70.6572V69.3596H49.4207V70.6572H48.1191ZM48.1191 67.0506V65.753H49.4207V67.0506H48.1191ZM55.3355 69.4518V70.6572H50.7732C50.8225 70.2017 50.9708 69.7699 51.2178 69.3621C51.4647 68.9541 51.9527 68.4129 52.6814 67.7388C53.2682 67.1939 53.6279 66.8243 53.7609 66.6305C53.9399 66.3625 54.0293 66.0981 54.0293 65.8362C54.0293 65.5467 53.9512 65.3246 53.7957 65.1689C53.6395 65.0135 53.4241 64.9356 53.1493 64.9356C52.8774 64.9356 52.6615 65.0174 52.5009 65.1805C52.3401 65.3435 52.2476 65.6144 52.2228 65.9932L50.926 65.8639C51.0031 65.1497 51.2456 64.6371 51.6532 64.326C52.0608 64.0154 52.5703 63.8597 53.1818 63.8597C53.8517 63.8597 54.3782 64.0399 54.7612 64.3999C55.144 64.7601 55.3355 65.2081 55.3355 65.7438C55.3355 66.0485 55.2805 66.3388 55.171 66.6142C55.0614 66.8898 54.8879 67.1784 54.6499 67.4801C54.4926 67.6802 54.2084 67.9682 53.7977 68.3436C53.3871 68.7193 53.1268 68.9686 53.0173 69.0916C52.9077 69.215 52.8189 69.335 52.7509 69.4518H55.3355ZM58.6055 63.8599C59.2631 63.8599 59.7773 64.0939 60.1479 64.5618C60.5892 65.1158 60.8102 66.0348 60.8102 67.3187C60.8102 68.5993 60.5878 69.5199 60.1434 70.0801C59.7759 70.5417 59.2631 70.7726 58.6055 70.7726C57.9446 70.7726 57.4118 70.5195 57.0073 70.0132C56.603 69.5067 56.4008 68.6038 56.4008 67.3046C56.4008 66.0301 56.6231 65.1128 57.0677 64.5524C57.4349 64.0906 57.9477 63.8599 58.6055 63.8599ZM58.6055 64.9357C58.448 64.9357 58.3074 64.9859 58.1838 65.0859C58.0604 65.186 57.9647 65.3651 57.8968 65.6238C57.8073 65.9595 57.7625 66.5244 57.7625 67.3187C57.7625 68.1128 57.8024 68.6585 57.8828 68.9557C57.963 69.2527 58.0641 69.4506 58.1863 69.5489C58.3082 69.6476 58.448 69.6968 58.6055 69.6968C58.7631 69.6968 58.9034 69.6468 59.027 69.5467C59.1504 69.4467 59.2461 69.2672 59.3141 69.0087C59.4035 68.6762 59.4485 68.1128 59.4485 67.3187C59.4485 66.5244 59.4082 65.9787 59.328 65.6815C59.2478 65.3845 59.1467 65.186 59.0246 65.0859C58.9026 64.9859 58.7631 64.9357 58.6055 64.9357ZM65.2012 70.6574H63.8996V65.767C63.4239 66.2102 62.8635 66.5382 62.2182 66.7508V65.573C62.5578 65.4622 62.9269 65.2523 63.3253 64.9426C63.7235 64.6334 63.9968 64.2723 64.1452 63.8599H65.2012V70.6574ZM67.3548 68.9163L68.6518 68.7824C68.6888 69.0748 68.7983 69.3065 68.9804 69.4774C69.1627 69.6484 69.3726 69.7336 69.6104 69.7336C69.8823 69.7336 70.1123 69.6237 70.3005 69.4036C70.4888 69.1835 70.5831 68.8518 70.5831 68.4083C70.5831 67.9928 70.4896 67.6811 70.303 67.4732C70.116 67.2654 69.8729 67.1616 69.5735 67.1616C69.1997 67.1616 68.8648 67.3264 68.5683 67.6556L67.5123 67.5032L68.1791 63.98H71.6209V65.1945H69.166L68.962 66.3444C69.2521 66.1998 69.5488 66.1271 69.8512 66.1271C70.4286 66.1271 70.918 66.3366 71.3197 66.7552C71.7211 67.174 71.9216 67.7172 71.9216 68.3853C71.9216 68.9426 71.7596 69.4397 71.4353 69.8768C70.9937 70.4741 70.3807 70.7727 69.5965 70.7727C68.9697 70.7727 68.4586 70.6049 68.0635 70.2693C67.668 69.9337 67.4319 69.4827 67.3548 68.9163Z" fill="white"/>
<path d="M140.516 35.2256L138.621 33.62C139.147 32.8479 139.551 32.0144 139.832 31.1195C140.112 30.2246 140.253 29.2946 140.253 28.3295V28.2769C140.253 26.9608 140.007 25.7325 139.516 24.592C139.042 23.4339 138.366 22.4337 137.489 21.5914C136.629 20.7316 135.603 20.056 134.41 19.5647C133.216 19.0558 131.909 18.8014 130.488 18.8014C129.066 18.8014 127.75 19.0558 126.54 19.5647C125.346 20.056 124.311 20.7404 123.434 21.6177C122.574 22.4775 121.898 23.4865 121.407 24.6446C120.916 25.7852 120.67 27.0135 120.67 28.3295V28.3822C120.67 29.6982 120.907 30.9353 121.381 32.0934C121.872 33.234 122.548 34.2341 123.407 35.094C124.285 35.9362 125.32 36.6118 126.513 37.1206C127.707 37.612 129.014 37.8576 130.435 37.8576C131.47 37.8576 132.444 37.726 133.357 37.4628C134.269 37.1821 135.12 36.7873 135.91 36.2784L137.937 38.0945L140.516 35.2256ZM136.015 28.3822C136.015 29.3297 135.848 30.172 135.515 30.909L132.488 28.1716L129.909 31.0669L132.909 33.62C132.155 33.9534 131.348 34.1201 130.488 34.1201C129.663 34.1201 128.909 33.9709 128.224 33.6726C127.557 33.3568 126.97 32.9356 126.461 32.4092C125.969 31.8828 125.583 31.2687 125.303 30.5668C125.039 29.8649 124.908 29.1191 124.908 28.3295V28.2769C124.908 27.4873 125.039 26.7503 125.303 26.0659C125.583 25.364 125.961 24.7499 126.434 24.2235C126.926 23.6971 127.505 23.2847 128.172 22.9864C128.856 22.6881 129.61 22.539 130.435 22.539C131.242 22.539 131.988 22.6969 132.672 23.0127C133.357 23.311 133.945 23.7234 134.436 24.2498C134.945 24.7762 135.331 25.3904 135.594 26.0923C135.875 26.7941 136.015 27.5399 136.015 28.3295V28.3822Z" fill="#2E2D31"/>
<path d="M155.982 37.5418V23.4339H151.982V31.3038C151.982 32.2513 151.753 32.9707 151.297 33.4621C150.858 33.9358 150.253 34.1727 149.481 34.1727C148.709 34.1727 148.112 33.9358 147.691 33.4621C147.27 32.9707 147.06 32.2513 147.06 31.3038V23.4339H143.059V32.5672C143.059 34.199 143.471 35.48 144.296 36.41C145.138 37.34 146.323 37.805 147.849 37.805C148.358 37.805 148.814 37.7436 149.218 37.6207C149.621 37.4979 149.99 37.3312 150.323 37.1206C150.657 36.9101 150.955 36.6732 151.218 36.41C151.499 36.1292 151.753 35.8397 151.982 35.5414V37.5418H155.982Z" fill="#2E2D31"/>
<path d="M171.434 37.5418V29.356C171.434 27.4434 170.934 25.9519 169.933 24.8815C168.933 23.8111 167.337 23.2759 165.143 23.2759C163.95 23.2759 162.932 23.3812 162.09 23.5918C161.248 23.8024 160.44 24.0743 159.668 24.4077L160.669 27.4609C161.318 27.2153 161.932 27.031 162.511 26.9082C163.108 26.7678 163.792 26.6976 164.564 26.6976C165.564 26.6976 166.319 26.917 166.828 27.3557C167.337 27.7943 167.591 28.4348 167.591 29.2771V29.514C167.082 29.3385 166.556 29.1981 166.012 29.0928C165.485 28.9875 164.862 28.9349 164.143 28.9349C163.301 28.9349 162.529 29.0314 161.827 29.2244C161.142 29.3999 160.546 29.6719 160.037 30.0404C159.546 30.4089 159.16 30.8739 158.879 31.4354C158.598 31.9969 158.458 32.6637 158.458 33.4357V33.4884C158.458 34.1903 158.58 34.8132 158.826 35.3572C159.089 35.8836 159.44 36.331 159.879 36.6995C160.318 37.068 160.827 37.3488 161.406 37.5418C162.002 37.7173 162.634 37.805 163.301 37.805C164.283 37.805 165.117 37.6471 165.801 37.3312C166.485 36.9978 167.073 36.5591 167.565 36.0152V37.5418H171.434ZM167.644 32.5672C167.644 33.3041 167.354 33.9007 166.775 34.357C166.213 34.8132 165.459 35.0413 164.511 35.0413C163.862 35.0413 163.336 34.8922 162.932 34.5939C162.529 34.2956 162.327 33.8744 162.327 33.3305V33.2778C162.327 32.6461 162.572 32.1636 163.064 31.8302C163.555 31.4968 164.231 31.3301 165.09 31.3301C165.582 31.3301 166.038 31.3827 166.459 31.488C166.898 31.5757 167.293 31.6986 167.644 31.8565V32.5672Z" fill="#2E2D31"/>
<path d="M178.798 37.5418V18.3276H174.797V37.5418H178.798Z" fill="#2E2D31"/>
<path d="M186.583 21.8809V18.3276H182.371V21.8809H186.583ZM186.478 37.5418V23.4339H182.477V37.5418H186.478Z" fill="#2E2D31"/>
<path d="M197.894 36.9627V33.7516C197.28 34.085 196.622 34.2517 195.92 34.2517C195.06 34.2517 194.631 33.7955 194.631 32.883V26.8556H197.947V23.4339H194.631V19.8279H190.63V23.4339H188.945V26.8556H190.63V33.541C190.63 34.3657 190.726 35.0501 190.919 35.594C191.13 36.1205 191.411 36.5504 191.762 36.8838C192.13 37.2172 192.56 37.4453 193.051 37.5681C193.56 37.7085 194.122 37.7787 194.736 37.7787C195.403 37.7787 195.99 37.6997 196.499 37.5418C197.008 37.4014 197.473 37.2084 197.894 36.9627Z" fill="#2E2D31"/>
<path d="M214.056 23.4339H209.898L206.818 33.0409L203.607 23.4339H199.369L204.897 37.5944C204.721 37.9454 204.528 38.1822 204.318 38.3051C204.125 38.4455 203.853 38.5156 203.502 38.5156C203.238 38.5156 202.949 38.463 202.633 38.3577C202.335 38.2524 202.054 38.1208 201.791 37.9629L200.448 40.8582C200.957 41.1565 201.493 41.3934 202.054 41.5689C202.616 41.7443 203.265 41.8321 204.002 41.8321C204.598 41.8321 205.125 41.7619 205.581 41.6215C206.037 41.4811 206.441 41.253 206.792 40.9372C207.16 40.6213 207.494 40.2089 207.792 39.7001C208.09 39.2088 208.371 38.6034 208.634 37.8839L214.056 23.4339Z" fill="#2E2D31"/>
<path d="M139.911 62.6092V44.1846H135.541L130.698 51.9756L125.855 44.1846H121.486V62.6092H125.46V50.6595L130.593 58.4505H130.698L135.884 50.5806V62.6092H139.911Z" fill="#2E2D31"/>
<path d="M155.786 62.6092V54.4234C155.786 52.5108 155.286 51.0193 154.286 49.9489C153.286 48.8785 151.689 48.3433 149.496 48.3433C148.302 48.3433 147.285 48.4486 146.442 48.6592C145.6 48.8697 144.793 49.1417 144.021 49.4751L145.021 52.5283C145.67 52.2826 146.285 52.0984 146.864 51.9756C147.46 51.8352 148.145 51.765 148.917 51.765C149.917 51.765 150.671 51.9843 151.18 52.423C151.689 52.8617 151.943 53.5022 151.943 54.3444V54.5813C151.435 54.4059 150.908 54.2655 150.364 54.1602C149.838 54.0549 149.215 54.0023 148.495 54.0023C147.653 54.0023 146.881 54.0988 146.179 54.2918C145.495 54.4673 144.898 54.7393 144.389 55.1077C143.898 55.4762 143.512 55.9412 143.231 56.5027C142.951 57.0643 142.81 57.731 142.81 58.5031V58.5558C142.81 59.2576 142.933 59.8806 143.179 60.4245C143.442 60.951 143.793 61.3984 144.231 61.7669C144.67 62.1354 145.179 62.4161 145.758 62.6092C146.355 62.7846 146.986 62.8724 147.653 62.8724C148.636 62.8724 149.469 62.7144 150.154 62.3986C150.838 62.0652 151.426 61.6265 151.917 61.0826V62.6092H155.786ZM151.996 57.6345C151.996 58.3715 151.707 58.9681 151.128 59.4243C150.566 59.8806 149.811 60.1087 148.864 60.1087C148.215 60.1087 147.688 59.9595 147.285 59.6612C146.881 59.3629 146.679 58.9418 146.679 58.3978V58.3452C146.679 57.7135 146.925 57.2309 147.416 56.8976C147.908 56.5642 148.583 56.3975 149.443 56.3975C149.934 56.3975 150.391 56.4501 150.812 56.5554C151.25 56.6431 151.645 56.7659 151.996 56.9239V57.6345Z" fill="#2E2D31"/>
<path d="M171.889 62.6092V53.4759C171.889 51.844 171.468 50.563 170.626 49.633C169.801 48.703 168.625 48.238 167.099 48.238C166.59 48.238 166.134 48.2994 165.73 48.4223C165.327 48.5451 164.958 48.7118 164.625 48.9224C164.291 49.1329 163.984 49.3786 163.703 49.6593C163.44 49.9226 163.195 50.2033 162.967 50.5016V48.5012H158.966V62.6092H162.967V54.7393C162.967 53.7917 163.186 53.081 163.625 52.6073C164.081 52.1159 164.695 51.8703 165.467 51.8703C166.239 51.8703 166.836 52.1159 167.257 52.6073C167.678 53.081 167.888 53.7917 167.888 54.7393V62.6092H171.889Z" fill="#2E2D31"/>
<path d="M187.235 62.6092V54.4234C187.235 52.5108 186.735 51.0193 185.735 49.9489C184.735 48.8785 183.138 48.3433 180.945 48.3433C179.752 48.3433 178.734 48.4486 177.892 48.6592C177.049 48.8697 176.242 49.1417 175.47 49.4751L176.47 52.5283C177.12 52.2826 177.734 52.0984 178.313 51.9756C178.909 51.8352 179.594 51.765 180.366 51.765C181.366 51.765 182.12 51.9843 182.629 52.423C183.138 52.8617 183.393 53.5022 183.393 54.3444V54.5813C182.884 54.4059 182.357 54.2655 181.813 54.1602C181.287 54.0549 180.664 54.0023 179.945 54.0023C179.102 54.0023 178.33 54.0988 177.628 54.2918C176.944 54.4673 176.347 54.7393 175.839 55.1077C175.347 55.4762 174.961 55.9412 174.68 56.5027C174.4 57.0643 174.259 57.731 174.259 58.5031V58.5558C174.259 59.2576 174.382 59.8806 174.628 60.4245C174.891 60.951 175.242 61.3984 175.681 61.7669C176.119 62.1354 176.628 62.4161 177.207 62.6092C177.804 62.7846 178.436 62.8724 179.102 62.8724C180.085 62.8724 180.918 62.7144 181.603 62.3986C182.287 62.0652 182.875 61.6265 183.366 61.0826V62.6092H187.235ZM183.445 57.6345C183.445 58.3715 183.156 58.9681 182.577 59.4243C182.015 59.8806 181.261 60.1087 180.313 60.1087C179.664 60.1087 179.137 59.9595 178.734 59.6612C178.33 59.3629 178.128 58.9418 178.128 58.3978V58.3452C178.128 57.7135 178.374 57.2309 178.865 56.8976C179.357 56.5642 180.032 56.3975 180.892 56.3975C181.383 56.3975 181.84 56.4501 182.261 56.5554C182.7 56.6431 183.094 56.7659 183.445 56.9239V57.6345Z" fill="#2E2D31"/>
<path d="M204.602 59.4243V48.5012H200.601V50.3437C200.057 49.7471 199.434 49.247 198.732 48.8434C198.03 48.4398 197.135 48.238 196.048 48.238C195.24 48.238 194.46 48.3872 193.705 48.6855C192.951 48.9662 192.284 49.3874 191.705 49.9489C191.126 50.5104 190.661 51.2035 190.31 52.0282C189.959 52.8354 189.783 53.7654 189.783 54.8182V54.8709C189.783 55.9237 189.95 56.8625 190.283 57.6872C190.634 58.4943 191.099 59.1787 191.678 59.7402C192.257 60.3017 192.924 60.7316 193.679 61.0299C194.433 61.3107 195.223 61.451 196.048 61.451C197.118 61.451 198.004 61.2492 198.706 60.8457C199.408 60.4421 200.057 59.8806 200.654 59.1611V59.8455C200.654 61.1089 200.32 62.0652 199.654 62.7144C199.004 63.3637 197.995 63.6883 196.627 63.6883C195.679 63.6883 194.828 63.5743 194.074 63.3461C193.337 63.118 192.6 62.8022 191.863 62.3986L190.494 65.3992C191.389 65.8729 192.363 66.2326 193.415 66.4783C194.468 66.7415 195.574 66.8731 196.732 66.8731C198.048 66.8731 199.197 66.7327 200.18 66.452C201.163 66.1712 201.979 65.7326 202.628 65.1359C203.295 64.5393 203.786 63.7673 204.102 62.8197C204.435 61.8897 204.602 60.7579 204.602 59.4243ZM200.654 54.8709C200.654 55.3446 200.566 55.7833 200.39 56.1869C200.215 56.5905 199.969 56.9414 199.654 57.2397C199.355 57.5205 198.995 57.7398 198.574 57.8977C198.153 58.0557 197.697 58.1346 197.206 58.1346C196.223 58.1346 195.407 57.8363 194.758 57.2397C194.109 56.6431 193.784 55.8535 193.784 54.8709V54.8182C193.784 54.3444 193.872 53.9058 194.047 53.5022C194.223 53.0986 194.46 52.7564 194.758 52.4757C195.074 52.1774 195.433 51.9493 195.837 51.7913C196.258 51.6334 196.714 51.5544 197.206 51.5544C197.697 51.5544 198.153 51.6334 198.574 51.7913C198.995 51.9493 199.355 52.1774 199.654 52.4757C199.969 52.7564 200.215 53.0986 200.39 53.5022C200.566 53.9058 200.654 54.3444 200.654 54.8182V54.8709Z" fill="#2E2D31"/>
<path d="M221.073 55.95V55.8974C221.073 54.8972 220.933 53.9409 220.652 53.0284C220.389 52.0984 219.968 51.2825 219.389 50.5806C218.827 49.8611 218.117 49.2909 217.257 48.8697C216.397 48.4486 215.379 48.238 214.204 48.238C213.168 48.238 212.221 48.431 211.361 48.8171C210.519 49.2031 209.791 49.7295 209.176 50.3963C208.562 51.0631 208.08 51.844 207.729 52.7389C207.395 53.6338 207.229 54.5813 207.229 55.5815V55.6342C207.229 56.7221 207.413 57.7135 207.781 58.6084C208.15 59.4858 208.659 60.2491 209.308 60.8983C209.975 61.5476 210.756 62.0476 211.651 62.3986C212.563 62.7495 213.546 62.925 214.599 62.925C215.88 62.925 216.994 62.6969 217.941 62.2407C218.889 61.7669 219.696 61.1176 220.363 60.2929L218.073 58.2662C217.511 58.7751 216.967 59.1436 216.441 59.3717C215.915 59.5998 215.318 59.7139 214.651 59.7139C213.756 59.7139 213.002 59.4858 212.388 59.0295C211.791 58.5558 211.396 57.8626 211.203 56.9502H221.021C221.038 56.7572 221.047 56.5905 221.047 56.4501C221.065 56.3097 221.073 56.143 221.073 55.95ZM217.178 54.4497H211.151C211.308 53.5373 211.642 52.8091 212.151 52.2651C212.677 51.7211 213.361 51.4492 214.204 51.4492C215.046 51.4492 215.722 51.7299 216.23 52.2914C216.739 52.8354 217.055 53.5548 217.178 54.4497Z" fill="#2E2D31"/>
<path d="M245.322 62.6092V53.4232C245.322 51.7211 244.901 50.4314 244.059 49.5541C243.217 48.6767 242.05 48.238 240.558 48.238C239.593 48.238 238.733 48.431 237.979 48.8171C237.224 49.1856 236.54 49.7383 235.926 50.4753C235.557 49.7559 235.031 49.2031 234.347 48.8171C233.68 48.431 232.881 48.238 231.951 48.238C231.442 48.238 230.977 48.2994 230.556 48.4223C230.153 48.5451 229.784 48.7118 229.451 48.9224C229.117 49.1329 228.81 49.3786 228.53 49.6593C228.266 49.9226 228.021 50.2033 227.793 50.5016V48.5012H223.792V62.6092H227.793V54.7393C227.793 53.7917 228.003 53.081 228.424 52.6073C228.863 52.1159 229.46 51.8703 230.214 51.8703C230.969 51.8703 231.548 52.1159 231.951 52.6073C232.355 53.081 232.557 53.7917 232.557 54.7393V62.6092H236.557V54.7393C236.557 53.7917 236.768 53.081 237.189 52.6073C237.628 52.1159 238.224 51.8703 238.979 51.8703C239.733 51.8703 240.313 52.1159 240.716 52.6073C241.12 53.081 241.322 53.7917 241.322 54.7393V62.6092H245.322Z" fill="#2E2D31"/>
<path d="M261.699 55.95V55.8974C261.699 54.8972 261.559 53.9409 261.278 53.0284C261.015 52.0984 260.593 51.2825 260.014 50.5806C259.453 49.8611 258.742 49.2909 257.882 48.8697C257.023 48.4486 256.005 48.238 254.829 48.238C253.794 48.238 252.846 48.431 251.987 48.8171C251.144 49.2031 250.416 49.7295 249.802 50.3963C249.188 51.0631 248.705 51.844 248.354 52.7389C248.021 53.6338 247.854 54.5813 247.854 55.5815V55.6342C247.854 56.7221 248.038 57.7135 248.407 58.6084C248.775 59.4858 249.284 60.2491 249.934 60.8983C250.6 61.5476 251.381 62.0476 252.276 62.3986C253.189 62.7495 254.171 62.925 255.224 62.925C256.505 62.925 257.619 62.6969 258.567 62.2407C259.514 61.7669 260.321 61.1176 260.988 60.2929L258.698 58.2662C258.137 58.7751 257.593 59.1436 257.066 59.3717C256.54 59.5998 255.943 59.7139 255.277 59.7139C254.382 59.7139 253.627 59.4858 253.013 59.0295C252.416 58.5558 252.022 57.8626 251.829 56.9502H261.646C261.664 56.7572 261.673 56.5905 261.673 56.4501C261.69 56.3097 261.699 56.143 261.699 55.95ZM257.803 54.4497H251.776C251.934 53.5373 252.267 52.8091 252.776 52.2651C253.303 51.7211 253.987 51.4492 254.829 51.4492C255.671 51.4492 256.347 51.7299 256.856 52.2914C257.365 52.8354 257.681 53.5548 257.803 54.4497Z" fill="#2E2D31"/>
<path d="M277.341 62.6092V53.4759C277.341 51.844 276.92 50.563 276.077 49.633C275.253 48.703 274.077 48.238 272.55 48.238C272.042 48.238 271.585 48.2994 271.182 48.4223C270.778 48.5451 270.41 48.7118 270.076 48.9224C269.743 49.1329 269.436 49.3786 269.155 49.6593C268.892 49.9226 268.646 50.2033 268.418 50.5016V48.5012H264.417V62.6092H268.418V54.7393C268.418 53.7917 268.637 53.081 269.076 52.6073C269.532 52.1159 270.146 51.8703 270.919 51.8703C271.691 51.8703 272.287 52.1159 272.708 52.6073C273.13 53.081 273.34 53.7917 273.34 54.7393V62.6092H277.341Z" fill="#2E2D31"/>
<path d="M288.476 62.0301V58.819C287.862 59.1524 287.204 59.3191 286.502 59.3191C285.642 59.3191 285.212 58.8628 285.212 57.9504V51.9229H288.528V48.5012H285.212V44.8953H281.211V48.5012H279.527V51.9229H281.211V58.6084C281.211 59.4331 281.308 60.1175 281.501 60.6614C281.711 61.1878 281.992 61.6177 282.343 61.9511C282.712 62.2845 283.141 62.5126 283.633 62.6355C284.142 62.7759 284.703 62.846 285.317 62.846C285.984 62.846 286.572 62.7671 287.081 62.6092C287.59 62.4688 288.055 62.2758 288.476 62.0301Z" fill="#2E2D31"/>
<path d="M134.804 82.2281V82.1755C134.804 81.3683 134.673 80.6752 134.41 80.0962C134.164 79.5171 133.787 79.017 133.278 78.5959C132.786 78.1572 132.172 77.7887 131.435 77.4904C130.716 77.1746 129.891 76.8938 128.961 76.6481C128.172 76.4376 127.514 76.2533 126.987 76.0954C126.478 75.9375 126.075 75.7708 125.776 75.5953C125.478 75.4198 125.267 75.2268 125.145 75.0163C125.039 74.7881 124.987 74.5249 124.987 74.2266V74.174C124.987 73.7178 125.18 73.3405 125.566 73.0422C125.969 72.7263 126.566 72.5684 127.356 72.5684C128.145 72.5684 128.935 72.7351 129.724 73.0685C130.514 73.3844 131.321 73.823 132.146 74.3846L134.252 71.3313C133.304 70.5768 132.26 69.9978 131.119 69.5942C129.996 69.1906 128.759 68.9888 127.408 68.9888C126.461 68.9888 125.592 69.1204 124.802 69.3836C124.013 69.6468 123.329 70.0241 122.749 70.5154C122.188 71.0067 121.749 71.5946 121.433 72.2789C121.118 72.9457 120.96 73.7002 120.96 74.5425V74.5951C120.96 75.5076 121.1 76.2709 121.381 76.885C121.679 77.4992 122.091 78.0168 122.618 78.438C123.144 78.8415 123.785 79.1837 124.539 79.4645C125.294 79.7452 126.136 79.9996 127.066 80.2278C127.838 80.4208 128.461 80.605 128.935 80.7805C129.426 80.956 129.803 81.1314 130.067 81.3069C130.347 81.4824 130.532 81.6754 130.619 81.886C130.725 82.079 130.777 82.3071 130.777 82.5703V82.6229C130.777 83.1669 130.54 83.5968 130.067 83.9127C129.61 84.211 128.961 84.3601 128.119 84.3601C127.066 84.3601 126.092 84.1583 125.197 83.7547C124.32 83.3512 123.46 82.8072 122.618 82.1229L120.223 84.9918C121.328 85.992 122.556 86.7378 123.908 87.2291C125.259 87.7029 126.636 87.9397 128.04 87.9397C129.04 87.9397 129.953 87.8169 130.777 87.5713C131.602 87.308 132.313 86.9396 132.909 86.4658C133.506 85.9745 133.971 85.3779 134.304 84.676C134.638 83.9565 134.804 83.1406 134.804 82.2281Z" fill="#2E2D31"/>
<path d="M151.061 73.5686H146.903L143.823 83.1757L140.612 73.5686H136.374L141.902 87.7292C141.726 88.0801 141.533 88.317 141.323 88.4398C141.13 88.5802 140.858 88.6504 140.507 88.6504C140.243 88.6504 139.954 88.5978 139.638 88.4925C139.34 88.3872 139.059 88.2556 138.796 88.0977L137.453 90.9929C137.962 91.2912 138.498 91.5281 139.059 91.7036C139.621 91.8791 140.27 91.9668 141.007 91.9668C141.603 91.9668 142.13 91.8966 142.586 91.7562C143.042 91.6159 143.446 91.3878 143.797 91.0719C144.165 90.7561 144.499 90.3437 144.797 89.8348C145.095 89.3435 145.376 88.7381 145.639 88.0187L151.061 73.5686Z" fill="#2E2D31"/>
<path d="M163.501 83.3862V83.3336C163.501 82.6844 163.369 82.1316 163.106 81.6754C162.843 81.2192 162.509 80.8331 162.106 80.5173C161.702 80.2014 161.246 79.9382 160.737 79.7277C160.228 79.4996 159.728 79.3065 159.237 79.1486C158.851 79.0258 158.482 78.903 158.131 78.7801C157.798 78.6573 157.5 78.5345 157.236 78.4116C156.973 78.2712 156.763 78.1309 156.605 77.9905C156.447 77.8326 156.368 77.6571 156.368 77.4641V77.4114C156.368 77.1307 156.491 76.9026 156.736 76.7271C156.982 76.5341 157.35 76.4376 157.842 76.4376C158.351 76.4376 158.938 76.5604 159.605 76.8061C160.272 77.0342 160.956 77.35 161.658 77.7536L163.185 74.9899C162.413 74.4811 161.562 74.0863 160.632 73.8055C159.719 73.5072 158.816 73.358 157.921 73.358C157.201 73.358 156.526 73.4546 155.894 73.6476C155.28 73.8406 154.736 74.1301 154.262 74.5162C153.806 74.9022 153.437 75.376 153.157 75.9375C152.893 76.4814 152.762 77.1131 152.762 77.8326V77.8852C152.762 78.5696 152.885 79.1486 153.13 79.6224C153.394 80.0962 153.727 80.4997 154.131 80.8331C154.534 81.149 154.982 81.4122 155.473 81.6228C155.982 81.8158 156.482 81.9825 156.973 82.1229C157.359 82.2457 157.728 82.3597 158.079 82.465C158.43 82.5703 158.737 82.6844 159 82.8072C159.281 82.9125 159.5 83.0441 159.658 83.202C159.816 83.3599 159.895 83.5442 159.895 83.7547V83.8074C159.895 84.1232 159.754 84.3777 159.474 84.5707C159.21 84.7637 158.789 84.8602 158.21 84.8602C157.543 84.8602 156.824 84.7198 156.052 84.4391C155.297 84.1583 154.534 83.7372 153.762 83.1757L152.051 85.8078C152.999 86.5447 153.99 87.0887 155.025 87.4396C156.078 87.773 157.105 87.9397 158.105 87.9397C158.86 87.9397 159.561 87.852 160.211 87.6765C160.877 87.4835 161.456 87.2028 161.948 86.8343C162.439 86.4658 162.816 86.0008 163.08 85.4393C163.36 84.8602 163.501 84.1759 163.501 83.3862Z" fill="#2E2D31"/>
<path d="M174.028 87.0975V83.8863C173.414 84.2197 172.756 84.3864 172.054 84.3864C171.194 84.3864 170.764 83.9302 170.764 83.0178V76.9903H174.08V73.5686H170.764V69.9627H166.763V73.5686H165.079V76.9903H166.763V83.6758C166.763 84.5005 166.86 85.1848 167.053 85.7288C167.263 86.2552 167.544 86.6851 167.895 87.0185C168.264 87.3519 168.693 87.58 169.185 87.7029C169.694 87.8432 170.255 87.9134 170.869 87.9134C171.536 87.9134 172.124 87.8345 172.633 87.6765C173.142 87.5362 173.607 87.3431 174.028 87.0975Z" fill="#2E2D31"/>
<path d="M189.927 81.0174V80.9647C189.927 79.9646 189.786 79.0082 189.505 78.0958C189.242 77.1658 188.821 76.3498 188.242 75.648C187.681 74.9285 186.97 74.3582 186.11 73.9371C185.25 73.516 184.233 73.3054 183.057 73.3054C182.022 73.3054 181.074 73.4984 180.214 73.8845C179.372 74.2705 178.644 74.7969 178.03 75.4637C177.415 76.1305 176.933 76.9113 176.582 77.8063C176.249 78.7012 176.082 79.6487 176.082 80.6489V80.7015C176.082 81.7895 176.266 82.7809 176.635 83.6758C177.003 84.5531 177.512 85.3164 178.161 85.9657C178.828 86.6149 179.609 87.115 180.504 87.466C181.416 87.8169 182.399 87.9924 183.452 87.9924C184.733 87.9924 185.847 87.7643 186.794 87.308C187.742 86.8343 188.549 86.185 189.216 85.3603L186.926 83.3336C186.364 83.8425 185.821 84.211 185.294 84.4391C184.768 84.6672 184.171 84.7812 183.504 84.7812C182.609 84.7812 181.855 84.5531 181.241 84.0969C180.644 83.6231 180.249 82.93 180.056 82.0176H189.874C189.891 81.8246 189.9 81.6579 189.9 81.5175C189.918 81.3771 189.927 81.2104 189.927 81.0174ZM186.031 79.5171H180.004C180.162 78.6046 180.495 77.8764 181.004 77.3325C181.53 76.7885 182.215 76.5165 183.057 76.5165C183.899 76.5165 184.575 76.7973 185.084 77.3588C185.592 77.9028 185.908 78.6222 186.031 79.5171Z" fill="#2E2D31"/>
<path d="M214.175 87.6765V78.4906C214.175 76.7885 213.754 75.4988 212.912 74.6214C212.07 73.7441 210.903 73.3054 209.411 73.3054C208.446 73.3054 207.586 73.4984 206.832 73.8845C206.077 74.2529 205.393 74.8057 204.779 75.5427C204.41 74.8232 203.884 74.2705 203.2 73.8845C202.533 73.4984 201.734 73.3054 200.804 73.3054C200.296 73.3054 199.831 73.3668 199.409 73.4897C199.006 73.6125 198.637 73.7792 198.304 73.9897C197.971 74.2003 197.663 74.446 197.383 74.7267C197.12 74.9899 196.874 75.2707 196.646 75.569V73.5686H192.645V87.6765H196.646V79.8066C196.646 78.8591 196.856 78.1484 197.277 77.6746C197.716 77.1833 198.313 76.9377 199.067 76.9377C199.822 76.9377 200.401 77.1833 200.804 77.6746C201.208 78.1484 201.41 78.8591 201.41 79.8066V87.6765H205.411V79.8066C205.411 78.8591 205.621 78.1484 206.042 77.6746C206.481 77.1833 207.078 76.9377 207.832 76.9377C208.587 76.9377 209.166 77.1833 209.569 77.6746C209.973 78.1484 210.175 78.8591 210.175 79.8066V87.6765H214.175Z" fill="#2E2D31"/>
<path d="M124.54 12.5808C123.61 12.5808 122.803 12.3877 122.119 12.0017C121.434 11.6069 120.908 11.0498 120.54 10.3303C120.18 9.61089 120 8.75986 120 7.77722C120 6.80335 120.18 5.96108 120.54 5.25042C120.908 4.53099 121.434 3.97825 122.119 3.59222C122.803 3.19741 123.61 3 124.54 3C125.172 3 125.764 3.09651 126.317 3.28953C126.878 3.47377 127.343 3.74575 127.712 4.10547L127.159 5.34255C126.729 5.00038 126.308 4.75472 125.896 4.60557C125.483 4.44764 125.04 4.36868 124.567 4.36868C123.663 4.36868 122.961 4.66259 122.461 5.25042C121.97 5.82948 121.724 6.67174 121.724 7.77722C121.724 8.88269 121.97 9.73372 122.461 10.3303C122.961 10.9182 123.663 11.2121 124.567 11.2121C125.04 11.2121 125.483 11.1375 125.896 10.9883C126.308 10.8304 126.729 10.5804 127.159 10.2382L127.712 11.4753C127.343 11.835 126.878 12.1114 126.317 12.3044C125.764 12.4886 125.172 12.5808 124.54 12.5808Z" fill="#2E2D31"/>
<path d="M129.286 12.4755V3.10528H135.55V4.43448H130.944V7.04023H135.287V8.38259H130.944V11.1463H135.55V12.4755H129.286Z" fill="#2E2D31"/>
<path d="M137.113 12.4755V3.10528H141.127C142.188 3.10528 142.995 3.33778 143.548 3.80278C144.101 4.26778 144.377 4.93458 144.377 5.80316C144.377 6.62788 144.092 7.28589 143.522 7.77722C142.952 8.25976 142.158 8.50104 141.14 8.50104L142.193 8.29047C142.517 8.29047 142.807 8.38698 143.061 8.58C143.316 8.77302 143.517 9.07132 143.667 9.4749L144.825 12.4755H143.035L141.85 9.35646C141.728 9.04938 141.552 8.84321 141.324 8.73792C141.105 8.63264 140.828 8.58 140.495 8.58H138.784V12.4755H137.113ZM138.771 7.26396H140.89C141.539 7.26396 142.013 7.14552 142.311 6.90863C142.609 6.67174 142.759 6.31641 142.759 5.84264C142.759 5.36009 142.609 5.00476 142.311 4.77665C142.013 4.54854 141.539 4.43448 140.89 4.43448H138.771V7.26396Z" fill="#2E2D31"/>
<path d="M148.294 12.4755V4.50028H145.241V3.10528H153.058V4.50028H150.005V12.4755H148.294Z" fill="#2E2D31"/>
<path d="M154.231 12.4755V3.10528H155.929V12.4755H154.231Z" fill="#2E2D31"/>
<path d="M157.971 12.4755V3.10528H164.104V4.4608H159.643V7.04023H163.841V8.39575H159.643V12.4755H157.971Z" fill="#2E2D31"/>
<path d="M165.503 12.4755V3.10528H167.2V12.4755H165.503Z" fill="#2E2D31"/>
<path d="M173.493 12.5808C172.563 12.5808 171.756 12.3877 171.072 12.0017C170.387 11.6069 169.861 11.0498 169.493 10.3303C169.133 9.61089 168.953 8.75986 168.953 7.77722C168.953 6.80335 169.133 5.96108 169.493 5.25042C169.861 4.53099 170.387 3.97825 171.072 3.59222C171.756 3.19741 172.563 3 173.493 3C174.125 3 174.717 3.09651 175.27 3.28953C175.831 3.47377 176.296 3.74575 176.665 4.10547L176.112 5.34255C175.682 5.00038 175.261 4.75472 174.849 4.60557C174.436 4.44764 173.993 4.36868 173.52 4.36868C172.616 4.36868 171.914 4.66259 171.414 5.25042C170.923 5.82948 170.677 6.67174 170.677 7.77722C170.677 8.88269 170.923 9.73372 171.414 10.3303C171.914 10.9182 172.616 11.2121 173.52 11.2121C173.993 11.2121 174.436 11.1375 174.849 10.9883C175.261 10.8304 175.682 10.5804 176.112 10.2382L176.665 11.4753C176.296 11.835 175.831 12.1114 175.27 12.3044C174.717 12.4886 174.125 12.5808 173.493 12.5808Z" fill="#2E2D31"/>
<path d="M178.769 12.4755H177.058L181.296 3.10528H182.678L186.916 12.4755H185.231L181.783 4.42132H182.244L178.769 12.4755ZM178.927 10.2777L179.572 8.96165H184.349L184.968 10.2777H178.927Z" fill="#2E2D31"/>
<path d="M188.97 12.4755V4.50028H185.917V3.10528H193.734V4.50028H190.681V12.4755H188.97Z" fill="#2E2D31"/>
<path d="M194.908 12.4755V3.10528H196.606V12.4755H194.908Z" fill="#2E2D31"/>
<path d="M202.806 12.5808C201.894 12.5808 201.104 12.3877 200.438 12.0017C199.771 11.6157 199.257 11.0629 198.898 10.3435C198.538 9.62405 198.358 8.77302 198.358 7.79038C198.358 6.79896 198.538 5.94792 198.898 5.23726C199.257 4.51783 199.771 3.96509 200.438 3.57906C201.104 3.19302 201.894 3 202.806 3C203.728 3 204.522 3.19302 205.188 3.57906C205.855 3.96509 206.368 4.51783 206.728 5.23726C207.088 5.94792 207.268 6.79457 207.268 7.77722C207.268 8.76863 207.084 9.62405 206.715 10.3435C206.355 11.0629 205.842 11.6157 205.175 12.0017C204.517 12.3877 203.728 12.5808 202.806 12.5808ZM202.806 11.2384C203.666 11.2384 204.342 10.9445 204.833 10.3566C205.324 9.76004 205.57 8.90023 205.57 7.77722C205.57 6.6542 205.324 5.80316 204.833 5.2241C204.342 4.63627 203.666 4.34236 202.806 4.34236C201.955 4.34236 201.284 4.63627 200.793 5.2241C200.302 5.80316 200.056 6.6542 200.056 7.77722C200.056 8.90023 200.302 9.76004 200.793 10.3566C201.284 10.9445 201.955 11.2384 202.806 11.2384Z" fill="#2E2D31"/>
<path d="M209.006 12.4755V3.10528H210.27L215.666 10.1198L215.31 10.304V3.10528H216.903V12.4755H215.626L210.257 5.48731L210.599 5.27674V12.4755H209.006Z" fill="#2E2D31"/>
</svg>
