<svg width="220" height="52" viewBox="0 0 220 52" fill="none" xmlns="http://www.w3.org/2000/svg">
<path d="M1.47394 12H2.42257V8.73384H4.82416L7.26177 12H8.42654L5.84483 8.56573C7.1657 8.32557 8.12634 7.50903 8.12634 6.11611V6.0921C8.12634 5.43166 7.88618 4.84327 7.47791 4.435C6.94956 3.90665 6.12101 3.59445 5.08833 3.59445H1.47394V12ZM2.42257 7.88128V4.47103H5.01628C6.37318 4.47103 7.1657 5.09544 7.1657 6.12812V6.15214C7.1657 7.23285 6.26511 7.88128 5.00427 7.88128H2.42257ZM10.1516 12H16.2876V11.1354H11.1002V8.19349H15.6872V7.32891H11.1002V4.45902H16.2276V3.59445H10.1516V12ZM21.0898 12.06H21.9304L25.5448 3.59445H24.5241L21.5221 10.8352L18.5321 3.59445H17.4755L21.0898 12.06ZM27.2859 12H28.2346V3.59445H27.2859V12ZM30.6964 12H36.8324V11.1354H31.645V8.19349H36.232V7.32891H31.645V4.45902H36.7724V3.59445H30.6964V12ZM41.0943 12.06H41.8868L44.2044 5.23953L46.5099 12.06H47.3144L50.3164 3.59445H49.3197L46.9182 10.5951L44.6126 3.57043H43.8321L41.5266 10.5951L39.125 3.59445H38.0923L41.0943 12.06ZM52.0386 12H58.1747V11.1354H52.9872V8.19349H57.5743V7.32891H52.9872V4.45902H58.1146V3.59445H52.0386V12ZM60.083 12H63.0009C65.6427 12 67.4679 10.1628 67.4679 7.79722V7.77321C67.4679 5.40764 65.6427 3.59445 63.0009 3.59445H60.083V12ZM63.0009 4.47103C65.1263 4.47103 66.4832 5.93599 66.4832 7.79722V7.82124C66.4832 9.68247 65.1263 11.1234 63.0009 11.1234H61.0316V4.47103H63.0009ZM76.9785 12.1441C79.5362 12.1441 81.2774 10.1148 81.2774 7.79722V7.77321C81.2774 5.45568 79.5602 3.45035 77.0025 3.45035C74.4448 3.45035 72.7037 5.47969 72.7037 7.79722V7.82124C72.7037 10.1388 74.4208 12.1441 76.9785 12.1441ZM77.0025 11.2675C75.0813 11.2675 73.6883 9.70648 73.6883 7.79722V7.77321C73.6883 5.86395 75.0572 4.32693 76.9785 4.32693C78.8998 4.32693 80.2927 5.88796 80.2927 7.79722V7.82124C80.2927 9.7305 78.9238 11.2675 77.0025 11.2675ZM83.278 12H84.2026V5.10745L89.6302 12H90.3867V3.59445H89.4621V10.3309L84.1666 3.59445H83.278V12Z" fill="#2E2D31"/>
<path d="M120.936 49.0476C123.19 49.0476 124.795 47.6118 124.795 45.4967V45.4658C124.795 43.397 123.159 42.1619 121.059 42.1619C120.164 42.1619 119.562 42.3626 118.929 42.6405L119.16 39.1822H124.317V38.0552H118.095L117.786 43.3198L118.605 43.8601C119.237 43.5205 119.963 43.2426 120.874 43.2426C122.449 43.2426 123.56 44.1689 123.56 45.5121V45.543C123.56 46.9016 122.495 47.936 120.951 47.936C119.855 47.936 118.821 47.3647 117.879 46.4539L117.076 47.3339C118.049 48.3065 119.392 49.0476 120.936 49.0476ZM131.868 48.8623H133.088V44.663H136.176L139.31 48.8623H140.807L137.488 44.4468C139.186 44.138 140.421 43.0882 140.421 41.2973V41.2664C140.421 40.4173 140.112 39.6608 139.587 39.1359C138.908 38.4566 137.843 38.0552 136.515 38.0552H131.868V48.8623ZM133.088 43.5668V39.1822H136.423C138.167 39.1822 139.186 39.985 139.186 41.3127V41.3436C139.186 42.7331 138.028 43.5668 136.407 43.5668H133.088ZM143.025 48.8623H150.914V47.7507H144.245V43.9682H150.142V42.8566H144.245V39.1668H150.837V38.0552H143.025V48.8623ZM157.089 48.9395H158.169L162.816 38.0552H161.504L157.644 47.3647L153.8 38.0552H152.441L157.089 48.9395ZM165.055 48.8623H166.275V38.0552H165.055V48.8623ZM169.44 48.8623H177.329V47.7507H170.659V43.9682H176.557V42.8566H170.659V39.1668H177.252V38.0552H169.44V48.8623ZM182.809 48.9395H183.828L186.807 40.1703L189.771 48.9395H190.806L194.666 38.0552H193.384L190.296 47.056L187.332 38.0243H186.329L183.364 47.056L180.277 38.0552H178.949L182.809 48.9395ZM200.284 49.0167C202.43 49.0167 203.973 47.8125 203.973 45.9598V45.9289C203.973 44.277 202.862 43.397 200.453 42.8721C198.076 42.3626 197.52 41.7913 197.52 40.7724V40.7415C197.52 39.7689 198.415 38.9969 199.82 38.9969C200.932 38.9969 201.936 39.352 202.939 40.1703L203.649 39.2285C202.553 38.3485 201.426 37.9008 199.851 37.9008C197.798 37.9008 196.3 39.1513 196.3 40.8496V40.8805C196.3 42.6559 197.443 43.4587 199.928 43.9991C202.198 44.4777 202.738 45.0489 202.738 46.0524V46.0833C202.738 47.1486 201.781 47.9205 200.33 47.9205C198.832 47.9205 197.752 47.4111 196.625 46.3921L195.868 47.2875C197.165 48.4455 198.57 49.0167 200.284 49.0167Z" fill="#2E2D31"/>
<g clip-path="url(#clip0_2816_285355)">
<path d="M124.211 17.2111L119.112 20.3012C118.974 20.3869 118.814 20.4297 118.652 20.424C118.49 20.4184 118.333 20.3647 118.201 20.2696C118.07 20.1746 117.969 20.0425 117.912 19.8901C117.855 19.7378 117.845 19.5719 117.882 19.4136L119.243 13.6115L114.751 9.69953C114.632 9.59253 114.547 9.45308 114.506 9.2983C114.465 9.14352 114.47 8.98016 114.521 8.82827C114.571 8.67639 114.665 8.54259 114.79 8.44333C114.916 8.34407 115.067 8.28367 115.226 8.26953L121.129 7.75999L123.457 2.28656C123.52 2.13831 123.625 2.01189 123.759 1.92304C123.893 1.83418 124.05 1.78681 124.211 1.78681C124.372 1.78681 124.529 1.83418 124.663 1.92304C124.797 2.01189 124.902 2.13831 124.965 2.28656L127.277 7.75999L133.196 8.26953C133.358 8.27893 133.513 8.33719 133.641 8.43666C133.769 8.53612 133.865 8.67214 133.914 8.82684C133.964 8.98153 133.966 9.14768 133.92 9.30343C133.873 9.45918 133.781 9.59726 133.655 9.69953L129.228 13.6115L130.573 19.4136C130.607 19.5696 130.595 19.7323 130.539 19.8817C130.483 20.0312 130.384 20.1609 130.256 20.2551C130.127 20.3493 129.973 20.4038 129.814 20.412C129.655 20.4202 129.497 20.3817 129.359 20.3012L124.211 17.2111Z" fill="#FCD702"/>
</g>
<g clip-path="url(#clip1_2816_285355)">
<path d="M210.063 17.2107L204.964 20.3008C204.826 20.3865 204.666 20.4293 204.504 20.4236C204.341 20.418 204.185 20.3643 204.053 20.2692C203.921 20.1742 203.821 20.0421 203.764 19.8897C203.707 19.7374 203.697 19.5715 203.734 19.4132L205.095 13.6111L200.603 9.69913C200.484 9.59214 200.399 9.45269 200.358 9.29791C200.317 9.14313 200.322 8.97976 200.373 8.82788C200.423 8.67599 200.517 8.5422 200.642 8.44294C200.767 8.34368 200.919 8.28327 201.078 8.26913L206.98 7.7596L209.309 2.28616C209.372 2.13791 209.477 2.0115 209.611 1.92264C209.745 1.83379 209.902 1.78642 210.063 1.78642C210.224 1.78642 210.381 1.83379 210.515 1.92264C210.649 2.0115 210.754 2.13791 210.817 2.28616L213.129 7.7596L219.048 8.26913C219.21 8.27853 219.365 8.33679 219.493 8.43626C219.621 8.53573 219.716 8.67174 219.766 8.82644C219.816 8.98114 219.817 9.14728 219.771 9.30303C219.725 9.45879 219.633 9.59687 219.507 9.69913L215.08 13.6111L216.424 19.4132C216.459 19.5692 216.447 19.7319 216.391 19.8813C216.334 20.0308 216.236 20.1605 216.107 20.2547C215.978 20.3489 215.825 20.4034 215.666 20.4116C215.507 20.4198 215.349 20.3813 215.211 20.3008L210.063 17.2107Z" fill="#FCD702"/>
</g>
<g clip-path="url(#clip2_2816_285355)">
<path d="M188.602 17.2109L183.503 20.301C183.365 20.3867 183.205 20.4294 183.043 20.4238C182.88 20.4182 182.724 20.3644 182.592 20.2694C182.46 20.1744 182.36 20.0423 182.303 19.8899C182.246 19.7375 182.236 19.5717 182.273 19.4134L183.634 13.6112L179.141 9.69929C179.023 9.5923 178.938 9.45285 178.897 9.29807C178.856 9.14329 178.861 8.97992 178.912 8.82804C178.962 8.67615 179.056 8.54236 179.181 8.4431C179.306 8.34384 179.458 8.28343 179.617 8.26929L185.519 7.75976L187.848 2.28632C187.911 2.13807 188.016 2.01166 188.15 1.9228C188.284 1.83395 188.441 1.78658 188.602 1.78658C188.763 1.78658 188.92 1.83395 189.054 1.9228C189.188 2.01166 189.293 2.13807 189.356 2.28632L191.668 7.75976L197.587 8.26929C197.748 8.2787 197.904 8.33696 198.032 8.43642C198.16 8.53589 198.255 8.6719 198.305 8.8266C198.355 8.9813 198.356 9.14744 198.31 9.30319C198.264 9.45895 198.172 9.59703 198.046 9.69929L193.619 13.6112L194.963 19.4134C194.998 19.5694 194.986 19.7321 194.93 19.8815C194.873 20.0309 194.775 20.1607 194.646 20.2549C194.517 20.349 194.364 20.4035 194.205 20.4117C194.046 20.4199 193.888 20.3815 193.75 20.301L188.602 17.2109Z" fill="#FCD702"/>
</g>
<g clip-path="url(#clip3_2816_285355)">
<path d="M167.137 17.211L162.038 20.3011C161.9 20.3868 161.74 20.4295 161.578 20.4239C161.416 20.4182 161.259 20.3645 161.127 20.2695C160.996 20.1744 160.895 20.0424 160.838 19.89C160.782 19.7376 160.771 19.5718 160.808 19.4135L162.169 13.6113L157.677 9.69937C157.558 9.59237 157.473 9.45292 157.432 9.29814C157.391 9.14336 157.397 8.98 157.447 8.82811C157.498 8.67623 157.591 8.54243 157.716 8.44317C157.842 8.34391 157.993 8.28351 158.152 8.26937L164.055 7.75983L166.383 2.2864C166.446 2.13815 166.551 2.01173 166.685 1.92288C166.819 1.83402 166.976 1.78665 167.137 1.78665C167.298 1.78665 167.455 1.83402 167.589 1.92288C167.723 2.01173 167.828 2.13815 167.891 2.2864L170.203 7.75983L176.122 8.26937C176.284 8.27877 176.439 8.33703 176.567 8.4365C176.696 8.53596 176.791 8.67198 176.84 8.82668C176.89 8.98137 176.892 9.14752 176.846 9.30327C176.799 9.45902 176.707 9.5971 176.581 9.69937L172.154 13.6113L173.499 19.4135C173.533 19.5695 173.522 19.7321 173.465 19.8816C173.409 20.031 173.31 20.1608 173.182 20.2549C173.053 20.3491 172.9 20.4036 172.74 20.4118C172.581 20.42 172.423 20.3815 172.285 20.3011L167.137 17.211Z" fill="#FCD702"/>
</g>
<g clip-path="url(#clip4_2816_285355)">
<path d="M145.676 17.2108L140.577 20.3009C140.439 20.3866 140.279 20.4294 140.117 20.4237C139.955 20.4181 139.798 20.3644 139.666 20.2693C139.535 20.1743 139.434 20.0422 139.377 19.8899C139.32 19.7375 139.31 19.5716 139.347 19.4134L140.708 13.6112L136.216 9.69924C136.097 9.59224 136.012 9.45279 135.971 9.29801C135.93 9.14323 135.935 8.97987 135.986 8.82798C136.036 8.6761 136.13 8.5423 136.255 8.44304C136.381 8.34378 136.532 8.28338 136.691 8.26924L142.594 7.7597L144.922 2.28627C144.985 2.13802 145.09 2.0116 145.224 1.92275C145.358 1.83389 145.515 1.78652 145.676 1.78652C145.837 1.78652 145.994 1.83389 146.128 1.92275C146.262 2.0116 146.367 2.13802 146.43 2.28627L148.742 7.7597L154.661 8.26924C154.823 8.27864 154.978 8.3369 155.106 8.43637C155.234 8.53583 155.33 8.67185 155.379 8.82655C155.429 8.98125 155.431 9.14739 155.385 9.30314C155.338 9.45889 155.246 9.59697 155.12 9.69924L150.693 13.6112L152.038 19.4134C152.072 19.5693 152.06 19.732 152.004 19.8814C151.948 20.0309 151.849 20.1606 151.721 20.2548C151.592 20.349 151.438 20.4035 151.279 20.4117C151.12 20.4199 150.962 20.3814 150.824 20.3009L145.676 17.2108Z" fill="#FCD702"/>
</g>
<g clip-path="url(#clip5_2816_285355)">
<path d="M25.1312 21.5172H29.5284V49.2665H25.1312V21.5172ZM44.9186 40.4145C44.9186 44.6612 41.3821 44.9998 40.3301 44.9998C37.7017 44.9998 37.2235 42.5156 37.2235 41.0172V30.397H32.8263V40.995C32.8263 43.6256 33.6441 45.7967 35.0776 47.2441C36.344 48.5239 38.2414 49.2232 40.2971 49.2232C41.7548 49.2232 43.8193 48.7648 44.9186 47.7514V49.2665H49.3158V30.397H44.9186V40.4145ZM58.1102 23.7371H53.713V30.397H50.4151V34.8368H53.713V49.2665H58.1102V34.8368H61.4081V30.397H58.1102V23.7371ZM75.256 43.6245C74.2985 44.4936 73.0343 44.9753 71.647 44.9753C68.5887 44.9753 66.3428 42.7077 66.3428 39.5942C66.3428 36.4807 68.5172 34.3085 71.647 34.3085C73.0101 34.3085 74.2985 34.7669 75.2801 35.636L75.9474 36.2154L78.9122 33.2229L78.1702 32.547C76.4256 30.9564 74.1094 30.064 71.6459 30.064C66.1494 30.064 62.1578 34.0687 62.1578 39.5709C62.1578 45.0497 66.245 49.1977 71.6459 49.1977C74.1556 49.1977 76.496 48.3052 78.2186 46.6891L78.9353 46.0132L75.9243 43.0229L75.256 43.6245ZM94.6069 32.0419C93.3405 30.7632 91.8565 30.064 89.8008 30.064C88.3431 30.064 86.692 30.5224 85.5927 31.5347V21.5172H81.1955V49.2665H85.5927V38.8716C85.5927 34.6248 88.5806 34.2874 89.6326 34.2874C92.261 34.2874 92.1885 36.7726 92.1885 38.2689V49.2665H96.5857V38.2922C96.5857 35.6616 96.0415 33.4905 94.6069 32.0419Z" fill="#2E2D31"/>
<path d="M71.502 36.4329C72.3452 36.4329 73.1538 36.7711 73.75 37.3731C74.3462 37.9751 74.6812 38.7915 74.6812 39.6429C74.6812 40.4943 74.3462 41.3107 73.75 41.9127C73.1538 42.5147 72.3452 42.8529 71.502 42.8529C70.6588 42.8529 69.8502 42.5147 69.254 41.9127C68.6578 41.3107 68.3228 40.4943 68.3228 39.6429C68.3228 38.7915 68.6578 37.9751 69.254 37.3731C69.8502 36.7711 70.6588 36.4329 71.502 36.4329Z" fill="#FF3D2E"/>
<path d="M18.975 42.2969C17.303 44.034 15.0318 44.9753 12.642 44.9753C7.74347 44.9753 4.18174 41.0904 4.18174 35.7581C4.18174 30.4014 7.74347 26.5165 12.642 26.5165C15.0087 26.5165 17.2546 27.4566 18.9519 29.1704L19.6203 29.8464L22.5598 26.8783L21.9146 26.2023C19.4774 23.6683 16.1795 22.2941 12.642 22.2941C5.42505 22.2941 0 28.0849 0 35.7814C0 43.4546 5.44923 49.2221 12.642 49.2221C16.2037 49.2221 19.5016 47.8235 21.9387 45.2894L22.584 44.6135L19.6687 41.5977L18.975 42.2969Z" fill="#2E2D31"/>
</g>
<defs>
<clipPath id="clip0_2816_285355">
<rect width="19.6748" height="19.7241" fill="white" transform="translate(114.473 1.79297)"/>
</clipPath>
<clipPath id="clip1_2816_285355">
<rect width="19.6748" height="19.7241" fill="white" transform="translate(200.324 1.79297)"/>
</clipPath>
<clipPath id="clip2_2816_285355">
<rect width="19.6748" height="19.7241" fill="white" transform="translate(178.863 1.79297)"/>
</clipPath>
<clipPath id="clip3_2816_285355">
<rect width="19.6748" height="19.7241" fill="white" transform="translate(157.398 1.79297)"/>
</clipPath>
<clipPath id="clip4_2816_285355">
<rect width="19.6748" height="19.7241" fill="white" transform="translate(135.938 1.79297)"/>
</clipPath>
<clipPath id="clip5_2816_285355">
<rect width="96.5856" height="27.7493" fill="white" transform="translate(0 21.5171)"/>
</clipPath>
</defs>
</svg>
