<svg width="24" height="24" viewBox="0 0 24 24" fill="none" xmlns="http://www.w3.org/2000/svg">
<path d="M6.33334 13.3333C7.25382 13.3333 8.00001 12.5871 8.00001 11.6667C8.00001 10.7462 7.25382 10 6.33334 10C5.41287 10 4.66667 10.7462 4.66667 11.6667C4.66667 12.5871 5.41287 13.3333 6.33334 13.3333ZM13.6667 11.6667C13.6667 12.5871 12.9205 13.3333 12 13.3333C11.0795 13.3333 10.3333 12.5871 10.3333 11.6667C10.3333 10.7462 11.0795 10 12 10C12.9205 10 13.6667 10.7462 13.6667 11.6667ZM17.6667 13.3333C18.5872 13.3333 19.3334 12.5871 19.3334 11.6667C19.3334 10.7462 18.5872 10 17.6667 10C16.7462 10 16 10.7462 16 11.6667C16 12.5871 16.7462 13.3333 17.6667 13.3333ZM8.00001 17C8.00001 17.9205 7.25382 18.6667 6.33334 18.6667C5.41287 18.6667 4.66667 17.9205 4.66667 17C4.66667 16.0795 5.41287 15.3333 6.33334 15.3333C7.25382 15.3333 8.00001 16.0795 8.00001 17ZM12 18.6667C12.9205 18.6667 13.6667 17.9205 13.6667 17C13.6667 16.0795 12.9205 15.3333 12 15.3333C11.0795 15.3333 10.3333 16.0795 10.3333 17C10.3333 17.9205 11.0795 18.6667 12 18.6667ZM0 4.16667C0 1.86548 1.86548 0 4.16667 0H19.8334C22.1346 0 24 1.86548 24 4.16667V19.8333C24 22.1345 22.1346 24 19.8334 24H4.16667C1.86548 24 0 22.1345 0 19.8333V4.16667ZM4.16667 1.66667C2.78596 1.66667 1.66667 2.78595 1.66667 4.16667V5.33333H22.3334V4.16667C22.3334 2.78595 21.2141 1.66667 19.8334 1.66667H4.16667ZM1.66667 19.8333C1.66667 21.214 2.78596 22.3333 4.16667 22.3333H19.8334C21.2141 22.3333 22.3334 21.214 22.3334 19.8333V7H1.66667V19.8333Z" fill="#2E2D31"/>
</svg>
