<svg width="24" height="24" viewBox="0 0 24 24" fill="none" xmlns="http://www.w3.org/2000/svg">
<path d="M12 0C18.6274 0 24 5.37258 24 12C24 18.6274 18.6274 24 12 24C5.37258 24 0 18.6274 0 12C0 5.37258 5.37258 0 12 0ZM12 1.57895C6.24461 1.57895 1.57895 6.24461 1.57895 12C1.57895 17.7554 6.24461 22.4211 12 22.4211C17.7554 22.4211 22.4211 17.7554 22.4211 12C22.4211 6.24461 17.7554 1.57895 12 1.57895ZM11.2105 4.42105C11.6193 4.42105 11.9555 4.73171 11.9959 5.12981L12 5.21053V12H16.2632C16.6992 12 17.0526 12.3535 17.0526 12.7895C17.0526 13.1982 16.742 13.5344 16.3439 13.5749L16.2632 13.5789H11.2105C10.8018 13.5789 10.4656 13.2683 10.4251 12.8702L10.4211 12.7895V5.21053C10.4211 4.77451 10.7745 4.42105 11.2105 4.42105Z" fill="#2E2D31"/>
</svg>
