<svg width="181" height="32" viewBox="0 0 181 32" fill="none" xmlns="http://www.w3.org/2000/svg">
<path fill-rule="evenodd" clip-rule="evenodd" d="M31.9272 16C31.9272 24.8366 24.7801 32 15.9636 32C7.14711 32 0 24.8366 0 16C0 7.1634 7.14711 0 15.9636 0C24.7801 0 31.9272 7.1634 31.9272 16V16ZM9.21604 13.3355C9.21706 13.3337 9.21871 13.3324 9.21947 13.3304C9.31962 13.0967 9.43156 12.866 9.55821 12.6396C10.8934 10.2545 13.3841 8.92809 15.9355 8.96684C16.2536 8.9737 16.554 8.99962 16.8382 9.03812C17.0685 9.07103 17.2983 9.11513 17.5268 9.17116C17.5177 9.16608 17.5091 9.16011 17.5005 9.15426C18.2791 9.32084 18.9144 9.55807 19.4318 9.69721C19.4318 9.69721 19.9982 9.88222 20.3944 9.86379C21.2738 9.7779 21.7364 9.53126 21.9216 9.44651C21.9806 9.44918 21.9693 9.47192 21.9691 9.48997C21.8054 9.82669 21.6588 10.3153 21.6496 10.6756C21.5157 12.508 23.8785 14.2774 22.6022 18.4737C22.4549 18.8646 22.2757 19.2502 22.0648 19.6271C21.8973 19.9259 21.6861 20.1963 21.486 20.4654C20.4097 21.9128 18.8599 22.9734 17.1842 23.3093C15.5575 23.6435 13.8082 23.4182 12.2459 22.5418C8.97783 20.7084 7.70323 16.6926 9.21871 13.3376C9.22441 13.343 9.22365 13.3389 9.21947 13.3304C9.21871 13.3322 9.21807 13.3342 9.21681 13.3361L9.21604 13.3355Z" fill="white"/>
<path fill-rule="evenodd" clip-rule="evenodd" d="M69.188 16.107V16.156C69.188 18.685 67.4171 20.833 64.7701 20.833C62.1012 20.833 60.2773 18.6325 60.2773 16.107V16.0585C60.2773 13.5295 62.0503 11.377 64.7217 11.377C67.3906 11.377 69.188 13.5535 69.188 16.107ZM55.3367 16.107V16.156C55.3367 21.186 59.3301 25.2105 64.7228 25.2105C70.1135 25.2105 74.1568 21.133 74.1568 16.107V16.0585C74.1568 11.029 70.1639 7 64.7712 7C59.3805 7 55.3367 11.0775 55.3367 16.107ZM49.3414 13.7566C49.3414 15.1306 48.2678 16.0586 46.5712 16.0586H44.25V11.4301H46.5473C48.2678 11.4301 49.3414 12.2041 49.3414 13.7041V13.7566ZM46.9196 7.35257H39.4062V24.8621H44.2487V19.8606H46.6692C50.9878 19.8606 54.1566 17.6836 54.1566 13.5296V13.4811C54.1566 9.62607 51.3116 7.35257 46.9196 7.35257ZM74.907 22.26L77.6024 19.0335C79.3494 20.4075 81.2461 21.133 83.268 21.133C84.59 21.133 85.2894 20.6835 85.2894 19.9335V19.885C85.2894 19.135 84.7157 18.758 82.3196 18.1825C78.6011 17.3315 75.7297 16.2815 75.7297 12.7025V12.654C75.7297 9.40349 78.3018 7.05249 82.4952 7.05249C85.466 7.05249 87.7847 7.85099 89.6833 9.37899L87.2614 12.804C85.6635 11.653 83.917 11.0775 82.37 11.0775C81.1972 11.0775 80.623 11.5555 80.623 12.204V12.2525C80.623 13.055 81.2216 13.404 83.6681 13.955C87.6614 14.8305 90.1563 16.1315 90.1563 19.4105V19.459C90.1563 23.034 87.3362 25.162 83.0939 25.162C79.9984 25.162 77.0786 24.185 74.907 22.26ZM93.3336 19.0335L90.6383 22.26C92.8098 24.185 95.7297 25.162 98.8251 25.162C103.067 25.162 105.888 23.034 105.888 19.459V19.4105C105.888 16.1315 103.393 14.8305 99.3993 13.955C96.9529 13.404 96.3542 13.055 96.3542 12.2525V12.204C96.3542 11.5555 96.9284 11.0775 98.1013 11.0775C99.6482 11.0775 101.395 11.653 102.993 12.804L105.415 9.37899C103.516 7.85099 101.197 7.05249 98.2265 7.05249C94.033 7.05249 91.4614 9.40349 91.4614 12.654V12.7025C91.4614 16.2815 94.3324 17.3315 98.0509 18.1825C100.447 18.758 101.021 19.135 101.021 19.885V19.9335C101.021 20.6835 100.322 21.133 98.9992 21.133C96.9773 21.133 95.0807 20.4075 93.3336 19.0335ZM107.741 17.1814V7.35239H112.632V17.0839C112.632 19.6089 113.904 20.8089 115.851 20.8089C117.822 20.8089 119.097 19.6579 119.097 17.2054V7.35239H123.988V17.0559C123.988 22.6854 120.769 25.1864 115.803 25.1864C110.861 25.1864 107.741 22.6609 107.741 17.1814ZM131.677 7.35254H126.56V24.862H131.303V14.8305L135.746 21.66H135.845L140.313 14.806V24.862H145.13V7.35254H140.014L135.845 14.1295L131.677 7.35254ZM147.729 17.1814V7.35239H152.62V17.0839C152.62 19.6089 153.892 20.8089 155.839 20.8089C157.81 20.8089 159.084 19.6579 159.084 17.2054V7.35239H163.975V17.0559C163.975 22.6854 160.756 25.1864 155.791 25.1864C150.849 25.1864 147.729 22.6609 147.729 17.1814ZM167.921 19.0335L165.226 22.26C167.397 24.185 170.317 25.162 173.413 25.162C177.655 25.162 180.476 23.034 180.476 19.459V19.4105C180.476 16.1315 177.98 14.8305 173.987 13.955C171.54 13.404 170.942 13.055 170.942 12.2525V12.204C170.942 11.5555 171.516 11.0775 172.689 11.0775C174.236 11.0775 175.982 11.653 177.58 12.804L180.002 9.37899C178.103 7.85099 175.785 7.05249 172.814 7.05249C168.621 7.05249 166.048 9.40349 166.048 12.654V12.7025C166.048 16.2815 168.92 17.3315 172.638 18.1825C175.034 18.758 175.609 19.135 175.609 19.885V19.9335C175.609 20.6835 174.909 21.133 173.587 21.133C171.565 21.133 169.668 20.4075 167.921 19.0335Z" fill="white"/>
</svg>
