<?xml version="1.0" encoding="utf-8"?>
<!-- Generator: Adobe Illustrator 25.0.0, SVG Export Plug-In . SVG Version: 6.00 Build 0)  -->
<svg version="1.1" id="Capa_1" xmlns="http://www.w3.org/2000/svg" xmlns:xlink="http://www.w3.org/1999/xlink" x="0px" y="0px"
	 viewBox="0 0 228 144" style="enable-background:new 0 0 228 144;" xml:space="preserve">
<style type="text/css">
	.st0{fill:#F93B70;}
	.st1{fill-rule:evenodd;clip-rule:evenodd;fill:#C4C4C4;}
	.st2{fill-rule:evenodd;clip-rule:evenodd;fill:#FB8A62;}
	.st3{fill:#FCD702;}
	.st4{fill-rule:evenodd;clip-rule:evenodd;fill:#454545;}
	.st5{fill:#1B8DFB;}
	.st6{fill-rule:evenodd;clip-rule:evenodd;fill:#3EE2CF;}
	.st7{fill:#2E2D31;}
	.st8{fill-rule:evenodd;clip-rule:evenodd;fill:#2E2D31;}
</style>
<path class="st0" d="M7.3,40.2h28.5v17.9h-7.4V76H0V58.1h7.3V40.2z"/>
<path class="st1" d="M73.7,40.2l17.9,17.9l17.8-17.8V76H73.5V40.2H73.7z"/>
<path class="st2" d="M71.6,40.2H37.9v18.1h0c0,0.3,0,0.6,0,0.8c0,9.3,7.5,16.8,16.8,16.8c9.3,0,16.8-7.5,16.8-16.8
	c0-0.3,0-0.6,0-0.8h0V40.2z"/>
<path class="st3" d="M80.8,78.1h28.5V96h-7.4v17.9H73.5V96h7.3V78.1L80.8,78.1z"/>
<path class="st4" d="M71.6,78.1H37.9v18.1h0c0,0.3,0,0.6,0,0.8c0,9.3,7.5,16.8,16.8,16.8c9.3,0,16.8-7.5,16.8-16.8
	c0-0.3,0-0.6,0-0.8h0V78.1z"/>
<path class="st5" d="M80.8,2.4h28.5v17.9h-7.4v17.9H73.5V20.3h7.3V2.4L80.8,2.4z"/>
<path class="st6" d="M30,6c2.5,2.4,3.7,5.8,3.7,10.1c0,4.4-1.2,7.7-3.7,10.1c-2.5,2.4-5.9,3.6-10.4,3.6h-9.1v8.3H0V15.9V2.4h19.6
	C24,2.4,27.5,3.6,30,6z"/>
<path class="st3" d="M53.5,38.1c9.9,0,17.9-8,17.9-17.9s-8-17.9-17.9-17.9s-17.9,8-17.9,17.9S43.7,38.1,53.5,38.1z"/>
<path class="st7" d="M121.2,37.9L111.4,2h9.5l0.8,3.4c0.6,3.1,1.4,6.3,2.2,9.5c0.3,1.4,0.8,3.5,1.3,6c0.6,2.6,1.1,4.8,1.4,6.7h0.4
	c0.4-2.4,1.3-7,2.8-13.7c0.7-3.1,1.3-6,1.8-8.7l0.7-3.2h9.3l0.7,3.2l1.6,7.6c0.2,1,0.6,3.1,1.3,6.2c0.7,3.1,1.2,6,1.7,8.6h0.4
	c0.8-3.8,2.3-10.3,4.4-19.7l0.6-2.5l0.8-3.4h9.5l-9.9,35.9h-10.3l-5.2-24.8h-0.4l-5.3,24.8H121.2z M187.9,26.4h-19.8
	c0.1,1.9,0.7,3.4,1.9,4.5c1.2,1.1,2.8,1.6,4.7,1.6c1.5,0,2.7-0.4,3.8-1.1c1.1-0.7,1.7-1.6,2.1-2.8h7.1c-0.3,2.2-1.1,4.1-2.5,5.6
	c-1.4,1.5-3,2.6-4.9,3.3c-1.9,0.7-3.8,1.1-5.6,1.1c-4.5,0-8.1-1.2-10.7-3.7c-2.6-2.5-3.8-5.9-3.8-10.5c0-2.8,0.6-5.2,1.7-7.3
	c1.2-2.1,2.8-3.8,4.9-4.9c2.1-1.2,4.6-1.7,7.4-1.7c2.8,0,5.3,0.6,7.3,1.8c2.1,1.2,3.7,2.8,4.8,4.9c1.1,2,1.6,4.3,1.6,6.9V26.4z
	 M174,16.8c-1.6,0-3,0.5-4,1.4c-1.1,0.9-1.7,2.3-1.8,4h11.6c-0.1-1.7-0.7-3-1.8-3.9C176.9,17.2,175.6,16.8,174,16.8z M123.2,40v29
	h17.3v6.9h-26.3V40H123.2z M156.1,76.7c-2.8,0-5.3-0.6-7.5-1.7c-2.2-1.2-4-2.8-5.3-5c-1.3-2.2-1.9-4.6-1.9-7.5
	c0-2.8,0.6-5.2,1.9-7.3c1.3-2.1,3.1-3.7,5.3-4.9c2.2-1.2,4.7-1.7,7.5-1.7c2.8,0,5.3,0.6,7.5,1.7c2.2,1.1,4,2.8,5.2,4.9
	c1.3,2.1,1.9,4.5,1.9,7.3c0,2.8-0.6,5.3-1.9,7.5c-1.3,2.2-3,3.8-5.2,5C161.4,76.1,158.9,76.7,156.1,76.7z M156.1,70.5
	c2,0,3.5-0.7,4.6-2c1.1-1.4,1.6-3.4,1.6-6c0-2.6-0.5-4.5-1.6-5.8c-1.1-1.3-2.6-2-4.6-2c-2,0-3.6,0.7-4.7,2c-1.1,1.3-1.6,3.2-1.6,5.8
	c0,2.7,0.5,4.7,1.6,6C152.5,69.9,154.1,70.5,156.1,70.5z M179.8,75.9l-9.4-26.4h9l1.8,5.9l1.5,5.3c0.4,1.3,1.1,3.7,2.1,7.3h0.3
	c1-3.3,1.7-5.8,2.3-7.6l1.5-5l1.8-5.9h8.6l-9.4,26.4H179.8z M226.5,64.4h-19.8c0.1,1.9,0.7,3.4,1.9,4.5c1.2,1.1,2.8,1.6,4.7,1.6
	c1.5,0,2.7-0.4,3.8-1.1s1.7-1.6,2.1-2.8h7.1c-0.3,2.2-1.1,4.1-2.5,5.6c-1.4,1.5-3,2.6-4.9,3.3c-1.9,0.7-3.8,1.1-5.6,1.1
	c-4.5,0-8.1-1.2-10.7-3.7c-2.6-2.5-3.8-5.9-3.8-10.5c0-2.8,0.6-5.2,1.7-7.3c1.2-2.1,2.8-3.8,4.9-4.9c2.1-1.2,4.6-1.7,7.4-1.7
	c2.8,0,5.3,0.6,7.3,1.8c2.1,1.2,3.7,2.8,4.8,4.9c1.1,2,1.6,4.3,1.6,6.9V64.4z M212.6,54.8c-1.6,0-3,0.5-4,1.4
	c-1.1,0.9-1.7,2.3-1.8,4h11.6c-0.1-1.7-0.7-3-1.8-3.9C215.5,55.2,214.2,54.8,212.6,54.8z M129.3,78c3.5,0,6.6,0.6,9.4,1.9
	c2.8,1.3,5,3.2,6.7,5.9c1.7,2.7,2.5,6,2.5,10c0,6.2-1.7,10.8-5.2,13.6c-3.4,2.9-7.9,4.3-13.4,4.3h-15.2V78H129.3z M128.9,106.9
	c2.8,0,5.1-0.9,6.9-2.7c1.8-1.8,2.7-4.6,2.7-8.3c0-3.8-0.9-6.6-2.7-8.4c-1.8-1.8-4.1-2.7-6.9-2.7h-5.7v22H128.9z M177.6,102.4h-19.8
	c0.1,1.9,0.7,3.4,1.9,4.5c1.2,1.1,2.8,1.6,4.7,1.6c1.5,0,2.7-0.4,3.8-1.1c1.1-0.7,1.7-1.6,2.1-2.8h7.1c-0.3,2.2-1.1,4.1-2.5,5.6
	c-1.4,1.5-3,2.6-4.9,3.3s-3.8,1.1-5.6,1.1c-4.5,0-8.1-1.2-10.7-3.7c-2.6-2.5-3.8-5.9-3.8-10.5c0-2.8,0.6-5.2,1.7-7.3
	c1.2-2.1,2.8-3.8,4.9-4.9c2.1-1.2,4.6-1.7,7.4-1.7c2.8,0,5.3,0.6,7.3,1.8c2.1,1.2,3.7,2.8,4.8,4.9c1.1,2,1.6,4.3,1.6,6.9V102.4z
	 M163.7,92.8c-1.6,0-3,0.5-4,1.4c-1.1,0.9-1.7,2.3-1.8,4h11.6c-0.1-1.7-0.7-3-1.8-3.9C166.6,93.2,165.3,92.8,163.7,92.8z
	 M186.7,113.9l-9.4-26.4h9l1.8,5.9l1.5,5.3c0.4,1.3,1.1,3.7,2.1,7.3h0.3c1-3.3,1.7-5.8,2.3-7.6l1.5-5l1.8-5.9h8.6l-9.4,26.4H186.7z"
	/>
<path class="st8" d="M149.9,135.1L149.9,135.1c0,1.3-0.9,2.4-2.3,2.4c-1.4,0-2.3-1.1-2.3-2.4v0c0-1.3,0.9-2.4,2.3-2.4
	C149,132.7,149.9,133.8,149.9,135.1z M142.8,135.1L142.8,135.1c0,2.6,2.1,4.7,4.8,4.7c2.8,0,4.9-2.1,4.9-4.7v0
	c0-2.6-2.1-4.7-4.8-4.7S142.8,132.5,142.8,135.1z M139.7,133.9c0,0.7-0.6,1.2-1.4,1.2h-1.2v-2.4h1.2
	C139.2,132.7,139.7,133.1,139.7,133.9L139.7,133.9z M138.5,130.6h-3.9v9h2.5V137h1.2c2.2,0,3.9-1.1,3.9-3.3v0
	C142.2,131.8,140.7,130.6,138.5,130.6z M152.9,138.3l1.4-1.7c0.9,0.7,1.9,1.1,2.9,1.1c0.7,0,1-0.2,1-0.6v0c0-0.4-0.3-0.6-1.5-0.9
	c-1.9-0.4-3.4-1-3.4-2.8v0c0-1.7,1.3-2.9,3.5-2.9c1.5,0,2.7,0.4,3.7,1.2l-1.2,1.8c-0.8-0.6-1.7-0.9-2.5-0.9c-0.6,0-0.9,0.2-0.9,0.6
	v0c0,0.4,0.3,0.6,1.6,0.9c2.1,0.5,3.3,1.1,3.3,2.8v0c0,1.8-1.5,2.9-3.6,2.9C155.5,139.8,154,139.3,152.9,138.3z M162.4,136.6
	l-1.4,1.7c1.1,1,2.6,1.5,4.2,1.5c2.2,0,3.6-1.1,3.6-2.9v0c0-1.7-1.3-2.4-3.3-2.8c-1.3-0.3-1.6-0.5-1.6-0.9v0c0-0.3,0.3-0.6,0.9-0.6
	c0.8,0,1.7,0.3,2.5,0.9l1.2-1.8c-1-0.8-2.2-1.2-3.7-1.2c-2.2,0-3.5,1.2-3.5,2.9v0c0,1.8,1.5,2.4,3.4,2.8c1.2,0.3,1.5,0.5,1.5,0.9v0
	c0,0.4-0.4,0.6-1,0.6C164.2,137.7,163.3,137.3,162.4,136.6z M169.8,135.7v-5.1h2.5v5c0,1.3,0.7,1.9,1.7,1.9c1,0,1.7-0.6,1.7-1.9
	v-5.1h2.5v5c0,2.9-1.7,4.2-4.2,4.2C171.4,139.8,169.8,138.5,169.8,135.7z M182.1,130.6h-2.6v9h2.4v-5.2l2.3,3.5h0.1l2.3-3.5v5.2h2.5
	v-9h-2.6l-2.1,3.5L182.1,130.6z M190.4,135.7v-5.1h2.5v5c0,1.3,0.7,1.9,1.7,1.9c1,0,1.7-0.6,1.7-1.9v-5.1h2.5v5
	c0,2.9-1.7,4.2-4.2,4.2C192,139.8,190.4,138.5,190.4,135.7z M200.7,136.6l-1.4,1.7c1.1,1,2.6,1.5,4.2,1.5c2.2,0,3.6-1.1,3.6-2.9v0
	c0-1.7-1.3-2.4-3.3-2.8c-1.3-0.3-1.6-0.5-1.6-0.9v0c0-0.3,0.3-0.6,0.9-0.6c0.8,0,1.7,0.3,2.5,0.9l1.2-1.8c-1-0.8-2.2-1.2-3.7-1.2
	c-2.2,0-3.5,1.2-3.5,2.9v0c0,1.8,1.5,2.4,3.4,2.8c1.2,0.3,1.5,0.5,1.5,0.9v0c0,0.4-0.4,0.6-1,0.6
	C202.6,137.7,201.6,137.3,200.7,136.6z"/>
<path class="st7" d="M101.7,134.6c1.3-0.1,2.1-0.9,2.1-1.9c0-1.3-1-2.1-2.6-2.1h-4v8.8h4c1.7,0,2.8-1,2.8-2.5
	C104.1,135.7,103.2,134.8,101.7,134.6L101.7,134.6z M101.2,131.6c0.9,0,1.5,0.5,1.5,1.3c0,0.9-0.8,1.6-2,1.6h-2.4v-2.9H101.2z
	 M98.3,138.5v-3h2.5c1.3,0,2.2,0.6,2.2,1.5c0,0.9-0.7,1.5-1.8,1.5H98.3z"/>
<path class="st7" d="M107.5,138.3c-0.5-1.4-1-2.9-1.4-3.9l-0.5-1.5h-1.1l2.5,6.5l-0.1,0.2c-0.5,1.1-0.9,1.3-2.1,1.2v0.9
	c1.9,0.1,2.5-0.4,3.3-2.3l2.7-6.6h-1.1l-0.5,1.5C108.7,135.4,108.1,136.9,107.5,138.3L107.5,138.3z"/>
<path class="st8" d="M122.5,143.3c4.5,0,8.2-3.7,8.2-8.2c0-4.5-3.7-8.2-8.2-8.2c-4.5,0-8.2,3.7-8.2,8.2
	C114.3,139.6,118,143.3,122.5,143.3z M119.1,133.7C119.1,133.7,119.1,133.7,119.1,133.7L119.1,133.7
	C119.1,133.7,119.1,133.7,119.1,133.7 M119.1,133.7C119.1,133.7,119.1,133.7,119.1,133.7L119.1,133.7z M119.2,133.3
	c-0.1,0.1-0.1,0.2-0.2,0.4c0,0,0,0,0,0c-0.8,1.7-0.1,3.8,1.6,4.7c0.8,0.5,1.7,0.6,2.5,0.4c0.9-0.2,1.7-0.7,2.2-1.5c0,0,0,0,0-0.1
	c0.1-0.1,0.2-0.2,0.3-0.4c0.1-0.2,0.2-0.4,0.3-0.6c0.4-1.4,0.1-2.3-0.2-3c-0.2-0.4-0.3-0.7-0.3-1c0-0.2,0.1-0.4,0.2-0.6c0,0,0,0,0,0
	c0,0,0,0,0,0c0,0,0,0,0,0c-0.1,0.1-0.3,0.2-0.8,0.2c-0.2,0-0.5-0.1-0.5-0.1c-0.1,0-0.2-0.1-0.3-0.1c-0.2-0.1-0.4-0.1-0.7-0.2l0,0
	c0,0,0,0,0,0c-0.1,0-0.2-0.1-0.4-0.1c-0.1,0-0.3,0-0.5,0C121.2,131.4,119.9,132.1,119.2,133.3z"/>
</svg>
