<svg width="32" height="32" viewBox="0 0 32 32" fill="none" xmlns="http://www.w3.org/2000/svg">
<path fill-rule="evenodd" clip-rule="evenodd" d="M15.5378 9.91641L15.6072 11.041L14.4511 10.9033C10.2429 10.3754 6.56658 8.58528 3.44514 5.57877L1.91911 4.08699L1.52604 5.18861C0.693653 7.64431 1.22545 10.2377 2.95959 11.9819C3.88446 12.9459 3.67636 13.0836 2.08096 12.5098C1.52604 12.3262 1.04048 12.1885 0.994236 12.2574C0.832384 12.418 1.38731 14.5065 1.82662 15.3327C2.42779 16.4802 3.65324 17.6048 4.9943 18.2704L6.12727 18.7982L4.78621 18.8212C3.49139 18.8212 3.44514 18.8441 3.58387 19.3261C4.04631 20.8179 5.87293 22.4015 7.90764 23.09L9.34119 23.5719L8.09262 24.3064C6.24288 25.3621 4.06943 25.9588 1.89598 26.0047C0.855505 26.0276 0 26.1194 0 26.1883C0 26.4178 2.82086 27.703 4.4625 28.2079C9.38744 29.6997 15.2372 29.0571 19.6304 26.5096C22.7518 24.6965 25.8733 21.0933 27.3299 17.6048C28.1161 15.7458 28.9022 12.3492 28.9022 10.7197C28.9022 9.66395 28.9716 9.52625 30.2664 8.26397C31.0294 7.52956 31.7462 6.72629 31.8849 6.49679C32.1161 6.06073 32.093 6.06073 30.9138 6.45089C28.9485 7.1394 28.671 7.0476 29.6421 6.01483C30.3589 5.28041 31.2144 3.94928 31.2144 3.55913C31.2144 3.49027 30.8676 3.60503 30.4745 3.81158C30.0583 4.04109 29.1334 4.38534 28.4398 4.5919L27.1912 4.98205L26.0582 4.22469C25.4339 3.81158 24.5553 3.35257 24.0929 3.21487C22.9137 2.89356 21.1102 2.93946 20.0466 3.30667C17.1563 4.33944 15.3297 7.0017 15.5378 9.91641Z" fill="#2E2D31"/>
</svg>
