<svg width="136" height="69" viewBox="0 0 136 69" fill="none" xmlns="http://www.w3.org/2000/svg">
<path d="M4.33251 23.4788H21.348V34.155H16.9092V44.8268H0V34.1506H4.33251V23.4788Z" fill="#F93B70"/>
<path fill-rule="evenodd" clip-rule="evenodd" d="M43.9364 23.4788L54.6082 34.1506L65.2047 23.5541V44.8268H43.8567V23.4788H43.9364Z" fill="#C4C4C4"/>
<path fill-rule="evenodd" clip-rule="evenodd" d="M42.6871 23.4788H22.5928V34.2791H22.6061C22.5972 34.443 22.5928 34.6113 22.5928 34.7797C22.5928 40.326 27.0892 44.8268 32.6399 44.8268C38.1863 44.8268 42.6871 40.3304 42.6871 34.7797C42.6871 34.6113 42.6827 34.443 42.6738 34.2791H42.6871V23.4788Z" fill="#FB8A62"/>
<path d="M48.1892 46.0717H65.2047V56.7479H60.7659V67.4197H43.8567V56.7479H48.1892V46.0717V46.0717Z" fill="#FCD702"/>
<path fill-rule="evenodd" clip-rule="evenodd" d="M42.6871 46.0717H22.5928V56.8719H22.6061C22.5972 57.0358 22.5928 57.2042 22.5928 57.3725C22.5928 62.9188 27.0892 67.4197 32.6399 67.4197C38.1863 67.4197 42.6871 62.9232 42.6871 57.3725C42.6871 57.2042 42.6827 57.0358 42.6738 56.8719H42.6871V46.0717Z" fill="#454545"/>
<path d="M48.1892 0.885986H65.2047V11.5622H60.7659V22.234H43.8567V11.5622H48.1892V0.885986V0.885986Z" fill="#1B8DFB"/>
<path fill-rule="evenodd" clip-rule="evenodd" d="M17.8661 3.06553C19.3501 4.49641 20.0943 6.51204 20.0943 9.10358C20.0943 11.6995 19.3501 13.7107 17.8661 15.1416C16.382 16.5725 14.3221 17.2902 11.6863 17.2902H6.28169V22.234H0V8.98397V0.885986H11.6818C14.3177 0.885986 16.3776 1.6125 17.8661 3.06553Z" fill="#3EE2CF"/>
<path d="M31.9356 22.2296C37.8295 22.2296 42.6074 17.4516 42.6074 11.5578C42.6074 5.66391 37.8295 0.885986 31.9356 0.885986C26.0417 0.885986 21.2638 5.66391 21.2638 11.5578C21.2638 17.4516 26.0417 22.2296 31.9356 22.2296Z" fill="#FCD702"/>
<path d="M72.2877 22L66.4189 0.603256H72.0737L72.5628 2.65123C72.95 4.50561 73.3779 6.39057 73.8466 8.30608C74.03 9.16195 74.2949 10.3642 74.6414 11.913C74.9878 13.4617 75.2731 14.7862 75.4972 15.8866H75.7418C75.9863 14.4602 76.5365 11.7398 77.3924 7.72532C77.7999 5.89131 78.1667 4.15919 78.4928 2.52896L78.9207 0.603256H84.4533L84.8507 2.52896L85.8288 7.05285C85.9511 7.6438 86.216 8.87666 86.6235 10.7514C87.0311 12.6262 87.3673 14.3379 87.6322 15.8866H87.8462C88.3149 13.6451 89.1911 9.72235 90.4749 4.11844L90.8112 2.65123L91.3003 0.603256H96.9551L91.0557 22H84.9118L81.794 7.23625H81.58L78.4316 22H72.2877ZM112.099 15.153H100.3C100.341 16.2942 100.718 17.1908 101.431 17.8429C102.165 18.495 103.102 18.8211 104.243 18.8211C105.119 18.8211 105.873 18.6071 106.505 18.1792C107.137 17.7512 107.544 17.201 107.728 16.5285H111.977C111.814 17.8531 111.324 18.9637 110.509 19.8603C109.694 20.757 108.726 21.4192 107.605 21.8472C106.485 22.2751 105.364 22.4891 104.243 22.4891C101.553 22.4891 99.434 21.7555 97.8852 20.2883C96.3569 18.8211 95.5927 16.7425 95.5927 14.0526C95.5927 12.402 95.929 10.9552 96.6014 9.71216C97.2943 8.44873 98.2622 7.47059 99.5053 6.77775C100.769 6.0849 102.236 5.73848 103.907 5.73848C105.598 5.73848 107.055 6.10528 108.278 6.83888C109.521 7.5521 110.469 8.53024 111.121 9.77329C111.773 10.996 112.099 12.3613 112.099 13.8692V15.153ZM103.785 9.40649C102.827 9.40649 102.022 9.68159 101.37 10.2318C100.738 10.782 100.382 11.5767 100.3 12.616H107.239C107.157 11.5971 106.801 10.8126 106.169 10.2624C105.537 9.69178 104.742 9.40649 103.785 9.40649ZM73.4798 23.6033V40.8735H83.7808V45H68.0695V23.6033H73.4798ZM93.1111 45.4891C91.4605 45.4891 89.9729 45.1528 88.6483 44.4804C87.3238 43.7875 86.2743 42.7992 85.5 41.5154C84.746 40.2316 84.369 38.744 84.369 37.0526C84.369 35.3817 84.746 33.9246 85.5 32.6816C86.2743 31.4182 87.3238 30.4502 88.6483 29.7777C89.9729 29.0849 91.4605 28.7385 93.1111 28.7385C94.7617 28.7385 96.2493 29.0849 97.5738 29.7777C98.8984 30.4502 99.9377 31.4182 100.692 32.6816C101.466 33.9246 101.853 35.3817 101.853 37.0526C101.853 38.744 101.466 40.2316 100.692 41.5154C99.9377 42.7992 98.8984 43.7875 97.5738 44.4804C96.2493 45.1528 94.7617 45.4891 93.1111 45.4891ZM93.1111 41.8211C94.293 41.8211 95.1998 41.4237 95.8315 40.629C96.4836 39.8138 96.8097 38.6217 96.8097 37.0526C96.8097 35.5243 96.4836 34.373 95.8315 33.5986C95.1998 32.8039 94.293 32.4065 93.1111 32.4065C91.9088 32.4065 90.9816 32.8039 90.3295 33.5986C89.6978 34.373 89.3819 35.5243 89.3819 37.0526C89.3819 38.6421 89.6978 39.8342 90.3295 40.629C90.9816 41.4237 91.9088 41.8211 93.1111 41.8211ZM107.224 45L101.6 29.2275H106.949L108.049 32.7733L108.966 35.9217C109.211 36.696 109.628 38.153 110.219 40.2927H110.403C110.973 38.3161 111.422 36.8081 111.748 35.7688L112.634 32.7733L113.735 29.2275H118.839L113.215 45H107.224ZM135.099 38.153H123.3C123.341 39.2942 123.718 40.1908 124.431 40.8429C125.165 41.495 126.102 41.8211 127.243 41.8211C128.12 41.8211 128.874 41.6071 129.505 41.1792C130.137 40.7512 130.545 40.201 130.728 39.5285H134.977C134.814 40.8531 134.325 41.9637 133.51 42.8603C132.695 43.757 131.727 44.4192 130.606 44.8472C129.485 45.2751 128.364 45.4891 127.243 45.4891C124.554 45.4891 122.434 44.7555 120.886 43.2883C119.357 41.8211 118.593 39.7425 118.593 37.0526C118.593 35.402 118.929 33.9552 119.602 32.7122C120.295 31.4487 121.263 30.4706 122.506 29.7777C123.769 29.0849 125.236 28.7385 126.907 28.7385C128.599 28.7385 130.056 29.1053 131.278 29.8389C132.521 30.5521 133.469 31.5302 134.121 32.7733C134.773 33.996 135.099 35.3613 135.099 36.8692V38.153ZM126.785 32.4065C125.827 32.4065 125.022 32.6816 124.37 33.2318C123.738 33.782 123.382 34.5767 123.3 35.616H130.239C130.157 34.5971 129.801 33.8126 129.169 33.2624C128.537 32.6918 127.743 32.4065 126.785 32.4065ZM85.4314 46.6033V50.7298H78.8901V68H73.4798V50.7298H66.8163V46.6033H85.4314ZM100.009 61.153H88.2106C88.2514 62.2942 88.6284 63.1908 89.3416 63.8429C90.0752 64.495 91.0126 64.8211 92.1537 64.8211C93.03 64.8211 93.784 64.6071 94.4157 64.1792C95.0474 63.7512 95.4549 63.201 95.6383 62.5285H99.8871C99.7241 63.8531 99.235 64.9637 98.4199 65.8603C97.6048 66.757 96.6369 67.4192 95.5161 67.8472C94.3953 68.2751 93.2745 68.4891 92.1537 68.4891C89.4639 68.4891 87.3446 67.7555 85.7958 66.2883C84.2675 64.8211 83.5033 62.7425 83.5033 60.0526C83.5033 58.402 83.8396 56.9552 84.512 55.7122C85.2049 54.4487 86.1728 53.4706 87.4159 52.7777C88.6793 52.0849 90.1465 51.7385 91.8175 51.7385C93.5089 51.7385 94.9659 52.1053 96.1885 52.8389C97.4316 53.5521 98.3792 54.5302 99.0313 55.7733C99.6833 56.996 100.009 58.3613 100.009 59.8692V61.153ZM91.6952 55.4065C90.7375 55.4065 89.9325 55.6816 89.2805 56.2318C88.6487 56.782 88.2921 57.5767 88.2106 58.616H95.1493C95.0678 57.5971 94.7112 56.8126 94.0794 56.2624C93.4477 55.6918 92.653 55.4065 91.6952 55.4065ZM101.227 59.9915C101.227 58.2798 101.584 56.8024 102.297 55.5593C103.031 54.3163 104.029 53.3687 105.293 52.7166C106.576 52.0645 108.013 51.7385 109.603 51.7385C111.926 51.7385 113.8 52.3702 115.227 53.6336C116.674 54.8767 117.438 56.5782 117.519 58.7383H112.598C112.578 57.6175 112.292 56.782 111.742 56.2318C111.212 55.6816 110.489 55.4065 109.572 55.4065C108.512 55.4065 107.697 55.8039 107.127 56.5986C106.576 57.373 106.301 58.4835 106.301 59.9304C106.301 63.1908 107.392 64.8211 109.572 64.8211C110.571 64.8211 111.314 64.5358 111.803 63.9652C112.292 63.3946 112.557 62.5285 112.598 61.367H117.519C117.479 62.9157 117.091 64.2301 116.358 65.3101C115.624 66.3698 114.666 67.1645 113.485 67.6943C112.303 68.2242 111.009 68.4891 109.603 68.4891C108.033 68.4891 106.617 68.1936 105.354 67.6026C104.111 67.0117 103.112 66.0845 102.358 64.8211C101.604 63.5373 101.227 61.9274 101.227 59.9915ZM130.001 51.7385C131.04 51.7385 132.008 51.983 132.905 52.4721C133.801 52.9408 134.515 53.6438 135.044 54.5812C135.595 55.4982 135.87 56.6088 135.87 57.913V68H130.887V59.4107C130.887 56.8227 129.756 55.5288 127.494 55.5288C126.414 55.5288 125.548 55.8956 124.896 56.6292C124.265 57.3628 123.949 58.3918 123.949 59.7164V68H118.966V46.6033H123.949V57.0877H124.132C124.295 55.9873 124.662 55.0397 125.232 54.245C125.803 53.4298 126.506 52.8083 127.342 52.3804C128.177 51.9524 129.064 51.7385 130.001 51.7385Z" fill="#2E2D31"/>
</svg>
